<svg width="20" height="20" viewBox="0 0 20 20" fill="none" xmlns="http://www.w3.org/2000/svg">
<g clip-path="url(#clip0_2642_854)">
<path d="M14.6299 3.51562H11.7002V0.585938C11.7002 0.257773 11.4424 0 11.1143 0H1.75781C0.785078 0 0 0.785117 0 1.75781V18.2422C0 19.2148 0.785078 20 1.75781 20H13.458C14.4307 20 15.2158 19.2148 15.2158 18.2422V4.10156C15.2158 3.7734 14.958 3.51562 14.6299 3.51562Z" fill="#CAE8F9"/>
<path d="M15.2158 4.10156V18.2422C15.2158 19.2148 14.4307 20 13.458 20H7.5986V0H11.1142C11.4424 0 11.7002 0.257773 11.7002 0.585938V3.51562H14.6299C14.958 3.51562 15.2158 3.7734 15.2158 4.10156Z" fill="#B7E0F6"/>
<path d="M15.2158 4.6875H11.1142C10.7904 4.6875 10.5283 4.42543 10.5283 4.10156V0H11.8054C12.2655 0 12.7164 0.186523 13.0414 0.512109L14.7042 2.17551C15.0292 2.50168 15.2158 2.95141 15.2158 3.41031V4.6875Z" fill="#CAE8F9"/>
<path d="M19.4814 6.28125C18.8253 5.61328 17.6534 5.61328 16.9971 6.28125L16.3994 6.89066L15.9776 7.30078C15.7431 7.52344 15.7431 7.89844 15.9776 8.12109L16.8095 8.95316L17.6416 9.78516C17.8525 10.0195 18.2511 10.0195 18.4619 9.78516L18.8838 9.37504L19.4814 8.76562C20.1728 8.10934 20.1728 6.93746 19.4814 6.28125Z" fill="#1689FC"/>
<path d="M12.8017 12.961L11.5947 11.7539C11.5713 11.7305 11.5479 11.7305 11.5244 11.7539L11.4894 11.7774C11.419 11.8477 11.3721 11.9297 11.3486 12.0117L10.5166 14.5078C10.4345 14.7422 10.5049 14.9648 10.6573 15.1055V15.1171C10.8213 15.2695 11.0439 15.3281 11.2549 15.2461L13.751 14.414C13.8331 14.3905 13.915 14.3437 13.9853 14.2734L14.0088 14.2499C14.0323 14.2265 14.0323 14.2031 14.0088 14.1796C13.6221 13.7813 13.2002 13.3594 12.8017 12.961Z" fill="#FEDBAB"/>
<path d="M11.1143 7.03125H2.92974C2.15642 7.03125 2.15642 5.85938 2.92974 5.85938H11.1143C11.8877 5.85938 11.8877 7.03125 11.1143 7.03125Z" fill="#17ACE8"/>
<path d="M8.77056 9.375H2.92974C2.15642 9.375 2.15642 8.20312 2.92974 8.20312H8.77056C9.54392 8.20312 9.54392 9.375 8.77056 9.375Z" fill="#17ACE8"/>
<path d="M8.77056 11.7188H2.92974C2.15642 11.7188 2.15642 10.5469 2.92974 10.5469H8.77056C9.54392 10.5469 9.54392 11.7188 8.77056 11.7188Z" fill="#17ACE8"/>
<path d="M8.77056 14.0625H2.92974C2.15642 14.0625 2.15642 12.8906 2.92974 12.8906H8.77056C9.54392 12.8906 9.54392 14.0625 8.77056 14.0625Z" fill="#17ACE8"/>
<path d="M11.1143 17.6562H7.59865C6.82533 17.6562 6.82533 16.4844 7.59865 16.4844H11.1143C11.8876 16.4844 11.8876 17.6562 11.1143 17.6562Z" fill="#17ACE8"/>
<path d="M12.8018 12.9609C13.2003 13.3593 13.6222 13.7812 14.0089 14.1796C14.0323 14.2031 14.0323 14.2266 14.0089 14.25L13.9854 14.2734C13.9151 14.3437 13.8332 14.3906 13.751 14.4141L11.2549 15.2461C11.0439 15.3281 10.8214 15.2695 10.6573 15.1172V15.1055L12.8018 12.9609Z" fill="#FEC478"/>
<path d="M19.4816 8.76563L18.8839 9.37504L18.462 9.78516C18.2511 10.0195 17.8526 10.0195 17.6417 9.78516L16.8096 8.95316L19.4816 6.28125C20.1729 6.9375 20.1729 8.10938 19.4816 8.76563Z" fill="#136EF1"/>
<path d="M18.8839 9.375L18.462 9.78512C16.1417 12.0937 16.915 11.3203 14.8291 13.4062C14.8291 13.4296 13.9971 14.2617 13.9854 14.2734C13.9151 14.3437 13.8332 14.3906 13.751 14.4141L11.3486 12.0117C11.3721 11.9297 11.419 11.8477 11.4894 11.7773C11.5011 11.7656 12.3331 10.9336 12.3566 10.9336C13.88 9.41012 13.1299 10.1719 15.9777 7.30078L16.3878 6.87891L18.8839 9.375Z" fill="#FD003A"/>
<path d="M18.8838 9.375L18.462 9.78512C16.1417 12.0938 16.915 11.3203 14.829 13.4063C14.829 13.4297 13.997 14.2617 13.9853 14.2735C13.9151 14.3438 13.8331 14.3906 13.751 14.4141L12.5556 13.2187L17.6417 8.13281L18.8838 9.375Z" fill="#E50027"/>
<path d="M8.77048 14.0625H7.5986V12.8906H8.77048C9.54384 12.8906 9.54384 14.0625 8.77048 14.0625Z" fill="#1689FC"/>
<path d="M8.77048 11.7188H7.5986V10.5469H8.77048C9.54384 10.5469 9.54384 11.7188 8.77048 11.7188Z" fill="#1689FC"/>
<path d="M8.77048 9.375H7.5986V8.20312H8.77048C9.54384 8.20312 9.54384 9.375 8.77048 9.375Z" fill="#1689FC"/>
<path d="M11.1142 17.6562H7.5986V16.4844H11.1142C11.8876 16.4844 11.8876 17.6562 11.1142 17.6562Z" fill="#1689FC"/>
<path d="M11.1142 7.03125H7.5986V5.85938H11.1142C11.8876 5.85938 11.8876 7.03125 11.1142 7.03125Z" fill="#1689FC"/>
</g>
<defs>
<clipPath id="clip0_2642_854">
<rect width="20" height="20" fill="white"/>
</clipPath>
</defs>
</svg>
