<svg width="15" height="15" viewBox="0 0 15 15" fill="none" xmlns="http://www.w3.org/2000/svg">
<g clip-path="url(#clip0_288_322)">
<path d="M12.8 3.01C12.6869 3.01 12.5744 2.97 12.4844 2.8875C11.105 1.63 9.33501 0.9375 7.50001 0.9375C5.66501 0.9375 3.89501 1.63 2.51564 2.88812C2.32376 3.0625 2.02751 3.04812 1.85314 2.8575C1.67876 2.66625 1.69251 2.36937 1.88376 2.195C3.43689 0.779375 5.43126 0 7.50001 0C9.56876 0 11.5631 0.779375 13.1163 2.195C13.3075 2.36937 13.3213 2.66562 13.1469 2.8575C13.0544 2.95875 12.9275 3.01 12.8 3.01Z" fill="#828282"/>
<path d="M13.5937 6.07273C13.4431 6.07273 13.2943 6.00024 13.2043 5.86523C11.9031 3.92773 9.7706 2.77086 7.49998 2.77086C5.22935 2.77086 3.09685 3.92773 1.7956 5.86523C1.65123 6.08086 1.35935 6.13773 1.14498 5.99336C0.929979 5.84898 0.872479 5.55773 1.01685 5.34273C2.49248 3.14586 4.91623 1.83398 7.49998 1.83398C10.0837 1.83398 12.5075 3.14586 13.9831 5.34336C14.1275 5.55836 14.0706 5.84961 13.855 5.99398C13.775 6.04711 13.6843 6.07273 13.5937 6.07273Z" fill="#828282"/>
<path d="M6.01938 14.9995C5.89876 14.9995 5.77813 14.9532 5.68626 14.8607C5.58376 14.7576 3.18188 12.3057 3.18188 9.94508C3.18188 7.49508 5.11876 5.50195 7.50001 5.50195C9.88126 5.50195 11.8181 7.49508 11.8181 9.94508C11.8181 10.2038 11.6081 10.4138 11.3494 10.4138C11.0906 10.4138 10.8806 10.2038 10.8806 9.94508C10.8806 8.01195 9.36439 6.43945 7.50001 6.43945C5.63563 6.43945 4.11938 8.01195 4.11938 9.94508C4.11938 11.9245 6.33001 14.1782 6.35251 14.2007C6.53501 14.3845 6.53376 14.6813 6.34939 14.8638C6.25814 14.9545 6.13876 14.9995 6.01938 14.9995Z" fill="#828282"/>
<path d="M8.98064 15C7.85314 15 5.23939 12.855 4.98626 10.4662C4.89689 9.62185 5.16564 8.7581 5.70439 8.1556C6.17314 7.63185 6.80626 7.34122 7.48689 7.33747H7.50001C8.16376 7.33747 8.79126 7.5981 9.26876 8.07247C9.76751 8.5681 10.0419 9.23372 10.0419 9.94622V10.2518C10.0419 11.005 10.6281 11.6175 11.3494 11.6175C12.0706 11.6175 12.6575 11.005 12.6575 10.2518V10.145C12.6575 7.22622 10.5431 4.7981 7.84376 4.6181C6.43689 4.52247 5.08626 5.00872 4.04439 5.98247C2.96314 6.99372 2.34314 8.43872 2.34314 9.94622C2.34314 11.1862 2.76314 12.3943 3.52564 13.3481C3.68689 13.5506 3.65439 13.845 3.45189 14.0068C3.25001 14.1687 2.95501 14.1362 2.79314 13.9331C1.89876 12.8137 1.40564 11.3975 1.40564 9.9456C1.40564 8.17935 2.13439 6.48497 3.40376 5.29747C4.63689 4.14372 6.23626 3.56935 7.90564 3.68185C11.0956 3.89497 13.595 6.73372 13.595 10.1443V10.2512C13.595 11.5212 12.5875 12.5543 11.3494 12.5543C10.1113 12.5543 9.10439 11.5212 9.10439 10.2512V9.9456C9.10439 9.48435 8.92814 9.0556 8.60814 8.73685C8.30814 8.4381 7.91501 8.27435 7.50064 8.27435C7.49751 8.27435 7.49501 8.27435 7.49189 8.27435C6.96376 8.27685 6.60814 8.55122 6.40314 8.7806C6.03751 9.18872 5.85626 9.78247 5.91814 10.3675C6.12501 12.3162 8.36439 14.0631 8.98064 14.0631C9.23939 14.0631 9.44939 14.2731 9.44939 14.5318C9.44939 14.7906 9.23939 15 8.98064 15Z" fill="#828282"/>
<path d="M10.72 14.0828C9.0425 14.0828 6.99438 12.0328 6.99438 9.63965C6.99438 9.3809 7.20438 9.1709 7.46313 9.1709C7.72188 9.1709 7.93188 9.3809 7.93188 9.63965C7.93188 11.4946 9.49125 13.1453 10.72 13.1453C10.9787 13.1453 11.1887 13.3553 11.1887 13.614C11.1887 13.8728 10.9787 14.0828 10.72 14.0828Z" fill="#828282"/>
</g>
<defs>
<clipPath id="clip0_288_322">
<rect width="15" height="15" fill="white"/>
</clipPath>
</defs>
</svg>
