<svg width="81" height="80" viewBox="0 0 81 80" fill="none" xmlns="http://www.w3.org/2000/svg">
<g opacity="0.8">
<path d="M75.8192 42.4684C75.7427 41.5694 75.1641 40.8311 74.3092 40.5415L67.3732 38.1928L74.1256 30.4459C74.5739 29.9316 74.7614 29.2516 74.6403 28.5804C74.5191 27.9091 74.1055 27.3377 73.5056 27.0127L64.7941 22.2928C64.2249 21.9846 63.514 22.1958 63.2054 22.7649C62.8971 23.3339 63.1085 24.0452 63.6774 24.3535L72.2692 29.0085L65.0734 37.264L42.3449 24.9494L46.5623 20.1111C47.0476 20.2892 47.5717 20.3864 48.118 20.3864C49.8141 20.3864 51.2945 19.4484 52.07 18.0645L58.5824 21.593C58.7599 21.6891 58.951 21.7347 59.1396 21.7347C59.5558 21.7347 59.9588 21.5125 60.1712 21.1208C60.4794 20.5517 60.268 19.8405 59.699 19.5322L52.642 15.7089C52.5625 13.2815 50.5645 11.3311 48.1181 11.3311C45.6215 11.3311 43.5904 13.3622 43.5904 15.8587C43.5904 16.958 43.9845 17.9666 44.6382 18.7517L40.5001 23.4993L33.1686 15.0884C32.4765 14.2942 31.3463 14.09 30.4196 14.5919L27.5538 16.1445C27.218 13.489 24.9466 11.4281 22.2014 11.4281C19.2257 11.4281 16.8048 13.849 16.8048 16.8248C16.8048 18.4702 17.5459 19.945 18.7107 20.9356L7.49443 27.0127C6.89474 27.3377 6.4813 27.909 6.35989 28.5804C6.2388 29.2516 6.4263 29.9316 6.87458 30.4457L13.6268 38.1926L6.69099 40.5412C5.83614 40.8308 5.25754 41.569 5.18098 42.4681C5.10442 43.3672 5.54973 44.1928 6.34317 44.6227L14.4881 49.0355V53.4588C14.4881 54.106 15.0126 54.6307 15.6599 54.6307C16.3073 54.6307 16.8318 54.106 16.8318 53.4588V50.3053L28.2269 56.4791C28.713 56.7426 29.2553 56.8765 29.7997 56.8765C30.1557 56.8765 30.5127 56.8191 30.8552 56.7032L39.3284 53.8343V77.1504L17.3312 65.2318C17.0232 65.065 16.832 64.7437 16.832 64.3934V59.244C16.832 58.5968 16.3075 58.0721 15.6601 58.0721C15.0128 58.0721 14.4882 58.5968 14.4882 59.244V64.3934C14.4882 65.6047 15.1496 66.7154 16.2146 67.2925L38.9295 79.5999C39.4213 79.8665 39.9609 79.9996 40.5004 79.9996C41.0399 79.9996 41.5795 79.8663 42.0714 79.5999L64.7862 67.2925C65.851 66.7154 66.5126 65.6047 66.5126 64.3934V49.0353L74.6573 44.6225C75.4503 44.1931 75.8958 43.3676 75.8192 42.4684ZM43.0907 33.4024C47.1929 34.5556 50.058 38.3384 50.058 42.6017C50.058 43.7889 49.8447 44.9411 49.4231 46.0328L40.5001 50.8674L31.5771 46.0328C31.1557 44.9411 30.9422 43.7889 30.9422 42.6017C30.9422 38.3253 33.8182 34.5392 37.9363 33.3946C38.5598 33.2213 38.9248 32.5752 38.7515 31.9518C38.5784 31.3282 37.932 30.9634 37.3087 31.1365C32.1804 32.562 28.5986 37.2765 28.5986 42.6017C28.5986 43.2439 28.6506 43.8778 28.7506 44.5016L18.12 38.7417L40.5004 26.6157L62.8807 38.7418L52.25 44.5017C52.35 43.878 52.402 43.2441 52.402 42.6019C52.402 37.2929 48.8341 32.5823 43.7253 31.1462C43.1021 30.9709 42.4551 31.3343 42.2801 31.9571C42.1045 32.5802 42.4674 33.2273 43.0907 33.4024ZM48.118 13.6751C49.3222 13.6751 50.302 14.6548 50.302 15.8591C50.302 17.0633 49.3222 18.0431 48.118 18.0431C46.9137 18.0431 45.934 17.0633 45.934 15.8591C45.934 14.6548 46.9137 13.6751 48.118 13.6751ZM22.2014 13.7722C23.8847 13.7722 25.2544 15.1417 25.2544 16.8252C25.2544 18.5084 23.8847 19.8781 22.2014 19.8781C20.5181 19.8781 19.1486 18.5086 19.1486 16.8252C19.1486 15.1417 20.5181 13.7722 22.2014 13.7722ZM21.3745 22.1585C21.6442 22.2002 21.9203 22.2219 22.2014 22.2219C24.3855 22.2219 26.2691 20.917 27.1177 19.0467L31.4593 16.6945L38.6549 24.9497L15.9265 37.2643L8.73069 29.0088L21.3745 22.1585ZM30.1033 54.4837C29.8527 54.5687 29.5755 54.5448 29.3433 54.4188L16.2234 47.3105C16.22 47.3086 16.2164 47.3067 16.2129 47.3049L7.67943 42.6814L15.551 40.0159L37.5809 51.9519L30.1033 54.4837ZM64.1684 64.3939C64.1684 64.7442 63.977 65.0654 63.6691 65.2323L41.672 77.1508V53.8347L50.1452 56.7037C50.4877 56.8196 50.8447 56.8769 51.2008 56.8769C51.7449 56.8769 52.2874 56.7429 52.7735 56.4796L64.1685 50.3058V64.3939H64.1684ZM51.6567 54.4188C51.4245 54.5448 51.1473 54.5687 50.8967 54.4837L43.4193 51.9519L65.4492 40.0159L73.3208 42.6814L51.6567 54.4188ZM73.5575 42.7616C73.5573 42.7616 73.5572 42.7614 73.5569 42.7614L73.5575 42.7616Z" fill="#0E9549"/>
<path d="M49.264 66.3571L46.5757 67.8137C46.0067 68.1219 45.7954 68.8332 46.1037 69.4023C46.3159 69.7938 46.719 70.0162 47.1353 70.0162C47.3237 70.0162 47.5151 69.9705 47.6925 69.8744L50.3808 68.4179C50.9498 68.1096 51.1611 67.3984 50.8528 66.8293C50.5445 66.2602 49.8336 66.0487 49.264 66.3571Z" fill="#0E9549"/>
<path d="M26.7023 9.86871C26.9312 10.0975 27.2312 10.212 27.5311 10.212C27.8309 10.212 28.1309 10.0976 28.3598 9.86871L29.3266 8.90199L30.2933 9.86871C30.5222 10.0975 30.8222 10.212 31.122 10.212C31.4219 10.212 31.7219 10.0976 31.9508 9.86871C32.4084 9.41105 32.4084 8.66902 31.9508 8.21152L30.9839 7.24465L31.9508 6.27777C32.4084 5.82012 32.4084 5.07809 31.9508 4.62059C31.493 4.16293 30.7511 4.16293 30.2934 4.62059L29.3267 5.5873L28.36 4.62059C27.9022 4.16293 27.1603 4.16293 26.7026 4.62059C26.245 5.07824 26.245 5.82027 26.7026 6.27777L27.6695 7.24465L26.7026 8.21152C26.2447 8.66902 26.2447 9.41105 26.7023 9.86871Z" fill="#0E9549"/>
<path d="M61.3962 17.5455C61.6252 17.7742 61.9251 17.8887 62.225 17.8887C62.5248 17.8887 62.8248 17.7744 63.0537 17.5455L64.0205 16.5787L64.9872 17.5455C65.2161 17.7742 65.5161 17.8887 65.8159 17.8887C66.1158 17.8887 66.4158 17.7744 66.6447 17.5455C67.1023 17.0878 67.1023 16.3458 66.6447 15.8883L65.6778 14.9214L66.6447 13.9545C67.1023 13.4969 67.1023 12.7548 66.6447 12.2973C66.1869 11.8397 65.445 11.8397 64.9873 12.2973L64.0206 13.2641L63.0539 12.2973C62.5961 11.8397 61.8542 11.8397 61.3966 12.2973C60.9389 12.755 60.9389 13.497 61.3966 13.9545L62.3634 14.9214L61.3966 15.8883C60.9386 16.3458 60.9386 17.0878 61.3962 17.5455Z" fill="#0E9549"/>
<path d="M54.9266 10.2111C57.7419 10.2111 60.0322 7.92078 60.0322 5.10562C60.0321 2.29031 57.7418 0 54.9266 0C52.1115 0 49.821 2.29031 49.821 5.10562C49.821 7.92078 52.1113 10.2111 54.9266 10.2111ZM54.9266 2.34375C56.4494 2.34375 57.6885 3.58266 57.6885 5.10562C57.6885 6.62844 56.4494 7.86734 54.9266 7.86734C53.4038 7.86734 52.1647 6.62844 52.1647 5.10562C52.1647 3.58266 53.4038 2.34375 54.9266 2.34375Z" fill="#0E9549"/>
<path opacity="0.9" d="M40.3857 46.967C41.5147 46.967 42.5804 46.5926 43.3879 45.9117C43.8825 45.4945 43.9455 44.7551 43.5282 44.2604C43.1111 43.7656 42.3718 43.7028 41.8769 44.1199C41.4972 44.4401 40.9541 44.6234 40.3855 44.6234H40.3777C39.8063 44.6217 39.2611 44.4349 38.8816 44.111C38.6608 43.9226 38.3904 43.8306 38.1214 43.8306C37.7904 43.8306 37.4613 43.9701 37.2296 44.2417C36.8094 44.7338 36.8679 45.4737 37.36 45.8938C38.1669 46.5826 39.2363 46.9638 40.371 46.9673C40.3758 46.967 40.3808 46.967 40.3857 46.967Z" fill="#0E9549"/>
<path d="M35.4098 40.3605H35.3989C34.751 40.3509 34.229 40.8772 34.2243 41.5242C34.22 42.1714 34.7464 42.6997 35.3935 42.7042H35.4018C36.0451 42.7042 36.569 42.1849 36.5735 41.5405C36.5781 40.8933 36.0571 40.365 35.4098 40.3605Z" fill="#0E9549"/>
<path d="M45.3721 42.68C45.3762 42.6808 45.3804 42.6813 45.3844 42.6821C45.4182 42.6886 45.4524 42.6941 45.4871 42.6977C45.4983 42.6988 45.5098 42.6988 45.521 42.6996C45.5471 42.7014 45.5732 42.7039 45.5999 42.7041H45.6082C45.6485 42.7041 45.6883 42.7021 45.7277 42.698C46.3194 42.6388 46.7813 42.1394 46.7813 41.5321C46.7813 40.9327 46.3312 40.4394 45.7507 40.3696C45.7454 40.3689 45.7402 40.3677 45.7349 40.3672C45.7082 40.3644 45.6808 40.3636 45.6535 40.3625C45.641 40.3621 45.6288 40.3605 45.6162 40.3604H45.6101H45.6052H45.5983H45.5969C44.9537 40.3604 44.4352 40.8797 44.4307 41.5241C44.4268 42.0933 44.8337 42.5702 45.3721 42.68Z" fill="#0E9549"/>
</g>
</svg>
