<svg width="60" height="60" viewBox="0 0 60 60" fill="none" xmlns="http://www.w3.org/2000/svg">
<g clip-path="url(#clip0_250:33)">
<path d="M37.9872 19.9736C38.0002 19.9745 38.0133 19.9755 38.0266 19.9755C38.0491 19.9755 38.0717 19.9736 38.0938 19.9705C38.6845 19.9826 39.1572 20.4644 39.1579 21.0551C39.1579 21.3235 39.3756 21.5411 39.644 21.5411C39.9124 21.5411 40.13 21.3235 40.13 21.0551C40.1288 20.0889 39.4562 19.253 38.5126 19.0451V18.5781C38.5126 18.3097 38.295 18.092 38.0266 18.092C37.7582 18.092 37.5405 18.3097 37.5405 18.5781V19.0672C36.5428 19.334 35.8973 20.2992 36.0319 21.3233C36.1664 22.3473 37.0393 23.1129 38.0722 23.1129C38.6719 23.1129 39.1579 23.5992 39.1579 24.1989C39.1579 24.7984 38.6719 25.2847 38.0722 25.2847C37.4724 25.2847 36.9864 24.7984 36.9864 24.1989C36.9864 23.9305 36.7688 23.7129 36.5003 23.7129C36.2319 23.7129 36.0143 23.9305 36.0143 24.1989C36.0155 25.1302 36.6411 25.945 37.5405 26.1868V26.7194C37.5405 26.9878 37.7582 27.2054 38.0266 27.2054C38.295 27.2054 38.5126 26.9878 38.5126 26.7194V26.2091C39.5391 25.9844 40.2314 25.0222 40.1182 23.9775C40.0052 22.9328 39.123 22.1411 38.0722 22.1413C37.489 22.1416 37.0099 21.6811 36.9869 21.0985C36.9641 20.5159 37.4057 20.0191 37.9872 19.9738V19.9736Z" fill="#7D4D7D"/>
<path d="M38.0998 15.7156C35.1097 15.7156 32.558 17.6666 31.602 20.2791H19.5384C19.2712 20.2791 19.0543 20.52 19.0524 20.787L18.9375 37.8376H15.4989C15.2304 37.8376 15 38.0319 15 38.3008V40.4646C15.0062 42.5015 16.6105 44.1749 18.6454 44.267V44.2777H33.6521V44.2634C33.7736 44.268 33.8236 44.2777 33.9005 44.2777H33.911C36.017 44.2744 37.7227 42.5661 37.7227 40.46V29.5202C37.8442 29.5268 37.9728 29.5304 38.0986 29.5304C41.9037 29.5304 45.0001 26.4281 45.0001 22.6228C45.0001 18.8177 41.9051 15.7156 38.0998 15.7156ZM18.8302 43.3056H18.8271C17.2549 43.3035 15.9792 42.0321 15.9721 40.4596V38.8097H30.0675V40.4527C30.0682 41.467 30.4733 42.4394 31.1929 43.1544C31.2439 43.2054 31.3073 43.2448 31.3607 43.3056H18.8302ZM36.7506 40.4596C36.7508 42.0292 35.48 43.3025 33.9105 43.3056H33.9013C32.3254 43.3027 31.0474 42.0288 31.0396 40.4532V38.3008C31.0436 38.1765 30.9961 38.0562 30.9081 37.9683C30.82 37.8805 30.6997 37.8333 30.5756 37.8376H19.9096L20.0211 21.2512H31.3322C31.246 21.6962 31.2014 22.1481 31.199 22.6012C31.1981 23.5592 31.3979 24.5067 31.7857 25.3826H27.1948C26.9262 25.3826 26.7088 25.6003 26.7088 25.8687C26.7088 26.1371 26.9262 26.3547 27.1948 26.3547H32.3131C33.3158 27.9315 34.9187 29.0308 36.7506 29.3987V40.4596ZM38.0998 28.5585C34.8256 28.5585 32.1711 25.9043 32.1714 22.6299C32.1714 19.3555 34.8256 16.7012 38.1001 16.7012C41.3742 16.7012 44.0285 19.3557 44.0285 22.6299C44.0249 25.9026 41.3728 28.555 38.0998 28.5585Z" fill="#7D4D7D"/>
<path d="M24.0747 28.6177C23.2168 28.6177 22.519 29.2934 22.519 30.124C22.519 30.9547 23.2168 31.6303 24.0747 31.6303C24.9327 31.6303 25.6307 30.9547 25.6307 30.124C25.6307 29.2934 24.9327 28.6177 24.0747 28.6177ZM24.0747 30.6582C23.7527 30.6582 23.4911 30.4185 23.4911 30.124C23.4911 29.8292 23.7529 29.5898 24.0747 29.5898C24.3965 29.5898 24.6586 29.8295 24.6586 30.124C24.6586 30.4185 24.3965 30.6582 24.0747 30.6582Z" fill="#7D4D7D"/>
<path d="M26.709 30.1218C26.709 30.3902 26.9264 30.6079 27.195 30.6079H33.675C33.9434 30.6079 34.1611 30.3902 34.1611 30.1218C34.1611 29.8534 33.9434 29.6357 33.675 29.6357H27.195C26.9264 29.6357 26.709 29.8534 26.709 30.1218Z" fill="#7D4D7D"/>
<path d="M24.0747 24.3926C23.2168 24.3926 22.519 25.0685 22.519 25.8991C22.519 26.7298 23.2168 27.4055 24.0747 27.4055C24.9327 27.4055 25.6307 26.7298 25.6307 25.8991C25.6307 25.0685 24.9327 24.3926 24.0747 24.3926ZM24.0747 26.4334C23.7527 26.4334 23.4911 26.1937 23.4911 25.8991C23.4911 25.6046 23.7529 25.3647 24.0747 25.3647C24.3965 25.3647 24.6586 25.6044 24.6586 25.8991C24.6586 26.1937 24.3965 26.4336 24.0747 26.4336V26.4334Z" fill="#7D4D7D"/>
<path d="M24.0747 32.8423C23.2168 32.8423 22.519 33.5179 22.519 34.3486C22.519 35.1792 23.2168 35.8549 24.0747 35.8549C24.9327 35.8549 25.6307 35.1792 25.6307 34.3486C25.6307 33.5179 24.9327 32.8423 24.0747 32.8423ZM24.0747 34.8828C23.7527 34.8828 23.4911 34.6433 23.4911 34.3486C23.4911 34.0541 23.7529 33.8144 24.0747 33.8144C24.3965 33.8144 24.6586 34.0541 24.6586 34.3486C24.6586 34.6431 24.3965 34.8828 24.0747 34.8828Z" fill="#7D4D7D"/>
<path d="M33.675 33.8884H27.195C26.9264 33.8884 26.709 34.1061 26.709 34.3745C26.709 34.6429 26.9264 34.8605 27.195 34.8605H33.675C33.9434 34.8605 34.1611 34.6429 34.1611 34.3745C34.1611 34.1061 33.9434 33.8884 33.675 33.8884Z" fill="#7D4D7D"/>
</g>
<defs>
<clipPath id="clip0_250:33">
<rect width="30" height="30" fill="white" transform="translate(15 15)"/>
</clipPath>
</defs>
</svg>
