<svg width="48" height="49" viewBox="0 0 48 49" fill="none" xmlns="http://www.w3.org/2000/svg">
<g clip-path="url(#clip0_244:844)">
<path d="M37.2053 42.327H29.6079H27.5621H27.1202V31.704H30.4531C31.2983 31.704 31.7978 30.7028 31.2983 29.9819L24.8151 20.6304C24.4021 20.0297 23.5473 20.0297 23.1342 20.6304L16.651 29.9819C16.1516 30.7028 16.6414 31.704 17.4962 31.704H20.8291V42.327H20.3873H18.3415H9.53387C4.49136 42.0366 0.476562 37.1206 0.476562 31.7941C0.476562 28.1196 2.38791 24.9157 5.22133 23.1836C4.962 22.4527 4.82753 21.6717 4.82753 20.8507C4.82753 17.0961 7.73778 14.0624 11.3396 14.0624C12.1176 14.0624 12.8667 14.2026 13.5679 14.4729C15.6521 9.86725 20.1472 6.67334 25.3722 6.67334C32.1339 6.68335 37.7047 12.08 38.3386 18.9584C43.5348 19.8895 47.4824 24.9057 47.4824 30.5826C47.4824 36.65 42.9489 41.9065 37.2053 42.327Z" fill="white"/>
</g>
<defs>
<clipPath id="clip0_244:844">
<rect width="47.0058" height="49" fill="white" transform="translate(0.476562)"/>
</clipPath>
</defs>
</svg>
