<svg width="15" height="18" viewBox="0 0 15 18" fill="none" xmlns="http://www.w3.org/2000/svg">
<path d="M13.3929 2.15625H11.7857V0.404297C11.7857 0.181934 11.6049 0 11.3839 0H10.0446C9.82366 0 9.64286 0.181934 9.64286 0.404297V2.15625H5.35714V0.404297C5.35714 0.181934 5.17634 0 4.95536 0H3.61607C3.39509 0 3.21429 0.181934 3.21429 0.404297V2.15625H1.60714C0.719866 2.15625 0 2.88062 0 3.77344V15.6328C0 16.5256 0.719866 17.25 1.60714 17.25H13.3929C14.2801 17.25 15 16.5256 15 15.6328V3.77344C15 2.88062 14.2801 2.15625 13.3929 2.15625ZM13.192 15.6328H1.80804C1.69754 15.6328 1.60714 15.5418 1.60714 15.4307V5.39062H13.3929V15.4307C13.3929 15.5418 13.3025 15.6328 13.192 15.6328Z" fill="#26A05B"/>
</svg>
