<svg width="60" height="60" viewBox="0 0 60 60" fill="none" xmlns="http://www.w3.org/2000/svg">
<rect width="60" height="60" rx="30" fill="#EC1E24"/>
<rect width="60" height="60" rx="30" fill="white" fill-opacity="0.95"/>
<path d="M44.894 12.3394C45.0736 11.2504 45.0736 11.2504 46.1627 11.2504C46.8924 11.2504 47.6222 11.2616 48.352 11.2504C48.8572 11.2391 49.0593 11.4861 49.0593 11.9689C49.0593 15.8086 49.0593 19.637 49.0593 23.4767C49.0593 24.0044 48.8235 24.2177 48.307 24.2065C47.4987 24.1952 46.7016 24.2065 45.8932 24.2065C45.0849 24.2065 44.9726 24.083 44.9614 23.2522C44.9614 23.1062 44.9501 22.9603 44.9389 22.7919C44.4337 22.6459 44.0632 22.6684 43.7937 23.2409C43.4008 24.0717 42.6486 24.4535 41.7392 24.4759C41.1441 24.4871 40.5379 24.4871 39.9428 24.4759C39.6285 24.4647 39.4488 24.5433 39.4601 24.9138C39.4825 26.2947 39.505 27.6756 39.505 29.0678C39.505 29.5506 39.4825 30.0333 39.4376 30.5161C39.3927 30.9877 39.0447 31.0326 38.6517 31.0326C36.3165 31.0326 33.9812 31.0326 31.646 31.0326C28.4126 31.0438 25.1904 31.055 21.957 31.055C19.4421 31.055 16.916 31.0326 14.4011 31.0101C13.8061 30.9989 13.604 30.7856 13.604 30.1793C13.6152 25.9916 13.6377 21.8039 13.6601 17.6161C13.6601 16.965 13.8173 16.8527 14.6032 16.8527C19.5207 16.8527 24.4494 16.8415 29.3669 16.8639C29.9507 16.8639 30.3324 16.6955 30.6805 16.2352C31.3541 15.337 32.0951 14.495 32.8024 13.6193C33.4985 12.7548 34.3742 12.3506 35.4857 12.3619C38.3823 12.3731 41.2901 12.3619 44.1867 12.3619C44.4337 12.3394 44.6695 12.3394 44.894 12.3394ZM38.3037 20.5689C37.9332 20.7597 37.6076 20.8496 37.3831 21.0404C36.7543 21.5793 36.2154 22.208 35.5643 22.702C35.1489 23.0164 34.6212 23.2634 34.116 23.342C33.2515 23.4767 32.4207 22.9378 32.0502 22.1744C31.6348 21.3099 31.7695 20.378 32.4094 19.6707C32.9034 19.1206 33.4199 18.5929 34.0037 17.9866C33.7342 17.953 33.5995 17.9305 33.4536 17.9305C27.4134 17.9305 21.3619 17.9305 15.3218 17.9193C14.8727 17.9193 14.7492 18.0652 14.7492 18.5031C14.7604 20.8383 14.7492 23.1848 14.7492 25.52C14.7492 26.8673 14.7604 28.2033 14.7492 29.5506C14.7492 29.8762 14.9176 29.9098 15.1758 29.9098C15.928 29.8986 16.669 29.9098 17.4212 29.9098C20.127 29.8986 22.8327 29.8762 25.5384 29.8762C28.828 29.8762 32.1063 29.8986 35.3959 29.9098C36.3389 29.9098 37.2932 29.9098 38.2925 29.9098C38.3037 26.7775 38.3037 23.7574 38.3037 20.5689ZM31.7134 16.6731C31.747 16.7292 31.7695 16.7741 31.8032 16.8302C32.7575 16.8302 33.7006 16.8639 34.6436 16.8078C34.9355 16.7966 35.2836 16.6282 35.4969 16.4261C36.0807 15.8759 36.5972 15.2472 37.181 14.6971C37.3381 14.5511 37.6637 14.495 37.877 14.5399C38.0118 14.5736 38.169 14.888 38.1465 15.0676C38.1353 15.2584 37.9556 15.4605 37.8097 15.6177C36.3165 17.1895 34.8233 18.7613 33.3301 20.3331C32.8248 20.872 32.7912 21.4783 33.2402 21.9274C33.6781 22.3652 34.3068 22.3428 34.8457 21.8488C35.452 21.2986 36.0583 20.7373 36.6533 20.1647C37.0912 19.7381 37.6076 19.536 38.2251 19.5472C39.2355 19.5584 40.246 19.5472 41.2564 19.5472C41.6606 19.5472 41.9525 19.4349 42.0199 18.9859C42.076 18.6154 42.2781 18.3908 42.671 18.4582C43.0977 18.5368 43.1538 18.8736 43.1089 19.2441C43.0078 20.0412 42.3454 20.6138 41.4697 20.6475C40.9421 20.6587 40.4256 20.6699 39.8979 20.6475C39.5836 20.6362 39.4601 20.771 39.4713 21.0741C39.4825 21.6916 39.4488 22.3091 39.4938 22.9266C39.505 23.0725 39.7295 23.2971 39.8643 23.3083C40.493 23.3532 41.1329 23.342 41.7729 23.3195C42.2556 23.3083 42.6598 23.0838 42.8394 22.6347C43.1538 21.8375 43.7264 21.5232 44.5572 21.5793C44.6807 21.5905 44.8042 21.5456 44.9277 21.5232C44.9277 18.8174 44.9277 16.1566 44.9277 13.4846C44.8266 13.4621 44.748 13.4397 44.6807 13.4397C41.5371 13.4397 38.3935 13.4172 35.2499 13.4621C34.8345 13.4621 34.3181 13.653 34.0486 13.9449C33.2178 14.8094 32.488 15.7637 31.7134 16.6731ZM47.959 17.7172C47.959 16.3363 47.959 14.9441 47.959 13.5632C47.959 12.3506 47.959 12.3843 46.7465 12.3394C46.1851 12.3169 46.0728 12.5078 46.0728 13.0355C46.0953 15.9545 46.0841 18.8736 46.0841 21.7814C46.0841 23.1174 46.0841 23.1062 47.4313 23.095C47.858 23.095 47.9702 22.9378 47.9702 22.5336C47.9478 20.9281 47.959 19.3227 47.959 17.7172Z" fill="#EC1E24"/>
<path d="M44.894 12.3394C45.0736 11.2504 45.0736 11.2504 46.1627 11.2504C46.8924 11.2504 47.6222 11.2616 48.352 11.2504C48.8572 11.2391 49.0593 11.4861 49.0593 11.9689C49.0593 15.8086 49.0593 19.637 49.0593 23.4767C49.0593 24.0044 48.8235 24.2177 48.307 24.2065C47.4987 24.1952 46.7016 24.2065 45.8932 24.2065C45.0849 24.2065 44.9726 24.083 44.9614 23.2522C44.9614 23.1062 44.9501 22.9603 44.9389 22.7919C44.4337 22.6459 44.0632 22.6684 43.7937 23.2409C43.4008 24.0717 42.6486 24.4535 41.7392 24.4759C41.1441 24.4871 40.5379 24.4871 39.9428 24.4759C39.6285 24.4647 39.4488 24.5433 39.4601 24.9138C39.4825 26.2947 39.505 27.6756 39.505 29.0678C39.505 29.5506 39.4825 30.0333 39.4376 30.5161C39.3927 30.9877 39.0447 31.0326 38.6517 31.0326C36.3165 31.0326 33.9812 31.0326 31.646 31.0326C28.4126 31.0438 25.1904 31.055 21.957 31.055C19.4421 31.055 16.916 31.0326 14.4011 31.0101C13.8061 30.9989 13.604 30.7856 13.604 30.1793C13.6152 25.9916 13.6377 21.8039 13.6601 17.6161C13.6601 16.965 13.8173 16.8527 14.6032 16.8527C19.5207 16.8527 24.4494 16.8415 29.3669 16.8639C29.9507 16.8639 30.3324 16.6955 30.6805 16.2352C31.3541 15.337 32.0951 14.495 32.8024 13.6193C33.4985 12.7548 34.3742 12.3506 35.4857 12.3619C38.3823 12.3731 41.2901 12.3619 44.1867 12.3619C44.4337 12.3394 44.6695 12.3394 44.894 12.3394ZM38.3037 20.5689C37.9332 20.7597 37.6076 20.8496 37.3831 21.0404C36.7543 21.5793 36.2154 22.208 35.5643 22.702C35.1489 23.0164 34.6212 23.2634 34.116 23.342C33.2515 23.4767 32.4207 22.9378 32.0502 22.1744C31.6348 21.3099 31.7695 20.378 32.4094 19.6707C32.9034 19.1206 33.4199 18.5929 34.0037 17.9866C33.7342 17.953 33.5995 17.9305 33.4536 17.9305C27.4134 17.9305 21.3619 17.9305 15.3218 17.9193C14.8727 17.9193 14.7492 18.0652 14.7492 18.5031C14.7604 20.8383 14.7492 23.1848 14.7492 25.52C14.7492 26.8673 14.7604 28.2033 14.7492 29.5506C14.7492 29.8762 14.9176 29.9098 15.1758 29.9098C15.928 29.8986 16.669 29.9098 17.4212 29.9098C20.127 29.8986 22.8327 29.8762 25.5384 29.8762C28.828 29.8762 32.1063 29.8986 35.3959 29.9098C36.3389 29.9098 37.2932 29.9098 38.2925 29.9098C38.3037 26.7775 38.3037 23.7574 38.3037 20.5689ZM31.7134 16.6731C31.747 16.7292 31.7695 16.7741 31.8032 16.8302C32.7575 16.8302 33.7006 16.8639 34.6436 16.8078C34.9355 16.7966 35.2836 16.6282 35.4969 16.4261C36.0807 15.8759 36.5972 15.2472 37.181 14.6971C37.3381 14.5511 37.6637 14.495 37.877 14.5399C38.0118 14.5736 38.169 14.888 38.1465 15.0676C38.1353 15.2584 37.9556 15.4605 37.8097 15.6177C36.3165 17.1895 34.8233 18.7613 33.3301 20.3331C32.8248 20.872 32.7912 21.4783 33.2402 21.9274C33.6781 22.3652 34.3068 22.3428 34.8457 21.8488C35.452 21.2986 36.0583 20.7373 36.6533 20.1647C37.0912 19.7381 37.6076 19.536 38.2251 19.5472C39.2355 19.5584 40.246 19.5472 41.2564 19.5472C41.6606 19.5472 41.9525 19.4349 42.0199 18.9859C42.076 18.6154 42.2781 18.3908 42.671 18.4582C43.0977 18.5368 43.1538 18.8736 43.1089 19.2441C43.0078 20.0412 42.3454 20.6138 41.4697 20.6475C40.9421 20.6587 40.4256 20.6699 39.8979 20.6475C39.5836 20.6362 39.4601 20.771 39.4713 21.0741C39.4825 21.6916 39.4488 22.3091 39.4938 22.9266C39.505 23.0725 39.7295 23.2971 39.8643 23.3083C40.493 23.3532 41.1329 23.342 41.7729 23.3195C42.2556 23.3083 42.6598 23.0838 42.8394 22.6347C43.1538 21.8375 43.7264 21.5232 44.5572 21.5793C44.6807 21.5905 44.8042 21.5456 44.9277 21.5232C44.9277 18.8174 44.9277 16.1566 44.9277 13.4846C44.8266 13.4621 44.748 13.4397 44.6807 13.4397C41.5371 13.4397 38.3935 13.4172 35.2499 13.4621C34.8345 13.4621 34.3181 13.653 34.0486 13.9449C33.2178 14.8094 32.488 15.7637 31.7134 16.6731ZM47.959 17.7172C47.959 16.3363 47.959 14.9441 47.959 13.5632C47.959 12.3506 47.959 12.3843 46.7465 12.3394C46.1851 12.3169 46.0728 12.5078 46.0728 13.0355C46.0953 15.9545 46.0841 18.8736 46.0841 21.7814C46.0841 23.1174 46.0841 23.1062 47.4313 23.095C47.858 23.095 47.9702 22.9378 47.9702 22.5336C47.9478 20.9281 47.959 19.3227 47.959 17.7172Z" fill="black" fill-opacity="0.3"/>
<path d="M15.7259 39.5318C14.6144 40.677 13.4917 41.8221 12.369 42.9673C12.268 43.0683 12.1669 43.2367 12.0434 43.2592C11.8301 43.2929 11.5045 43.3378 11.3923 43.2143C11.2575 43.0683 11.2238 42.7427 11.2688 42.5294C11.3024 42.361 11.5157 42.2151 11.6617 42.0691C12.8406 40.8903 14.0194 39.7114 15.1982 38.5326C15.7371 37.9937 15.928 37.9937 16.4894 38.555C16.7925 38.8582 17.1069 39.1613 17.41 39.4532C17.4324 39.4757 17.4774 39.4757 17.6345 39.6104C17.9601 39.2287 18.2857 38.8357 18.6225 38.4652C20.5536 36.3208 22.9562 35.3216 25.8528 35.4002C28.5585 35.4676 31.2755 35.389 33.9925 35.4339C34.5987 35.4451 35.205 35.6584 35.8112 35.7707C35.8449 35.8718 35.8898 35.9728 35.9235 36.0626C36.5747 35.3553 37.2259 34.6368 37.8883 33.9295C38.4384 33.3456 39.011 32.7731 39.5611 32.2005C40.3582 31.3809 42.1546 31.3135 42.9629 32.0658C44.0071 33.0537 44.1418 34.6031 43.1762 35.6472C42.177 36.7362 41.0992 37.7467 40.0551 38.802C38.9998 39.8574 37.9332 40.9127 36.8778 41.9793C35.5643 43.3153 33.9812 44.0002 32.1063 44.0114C29.7486 44.0226 27.3909 44.0451 25.0332 44.0002C24.1238 43.9777 23.5625 44.3931 22.9674 45.2239C23.3491 45.5495 23.7645 45.8639 24.135 46.2232C24.5617 46.6273 24.5392 46.8856 24.1238 47.3122C23.7309 47.7164 23.3267 48.1093 22.9337 48.5023C22.6531 48.7829 22.3387 48.8615 22.0468 48.5472C21.7773 48.2553 21.8672 47.9521 22.1254 47.7051C22.4397 47.4132 22.7766 47.1438 23.0685 46.8968C20.5985 44.4044 18.2071 42.013 15.7259 39.5318ZM22.2601 44.1798C22.3162 44.1349 22.4397 44.0676 22.5183 43.9665C23.2144 43.1132 24.1238 42.855 25.2016 42.8775C27.4695 42.9224 29.7261 42.8887 31.994 42.8999C33.4648 42.8999 34.7671 42.4621 35.8225 41.4292C37.9669 39.3185 40.0888 37.1853 42.2107 35.0409C42.8394 34.4122 42.8394 33.6151 42.2781 33.0425C41.7279 32.4924 40.8971 32.5261 40.2796 33.1436C39.112 34.3 37.9332 35.4563 36.7992 36.6464C36.6196 36.8261 36.5073 37.1629 36.5186 37.4099C36.5522 38.701 35.6316 39.7227 34.3293 39.7563C33.9588 39.7676 33.5771 39.7563 33.2066 39.7563C32.3084 39.7563 31.4102 39.7676 30.512 39.7563C30.1528 39.7563 29.8946 39.5655 29.9058 39.1725C29.917 38.8133 30.1416 38.6449 30.5008 38.6336C30.6917 38.6336 30.8713 38.6336 31.0622 38.6336C32.1512 38.6336 33.229 38.6449 34.318 38.6224C34.9131 38.6112 35.3846 38.1396 35.3846 37.6007C35.3958 37.0169 34.9468 36.5791 34.3068 36.5342C34.1945 36.5229 34.0823 36.5342 33.97 36.5342C31.1071 36.5342 28.2442 36.5678 25.3812 36.5229C22.2938 36.4668 20.228 38.1958 18.4204 40.3401C19.6891 41.6313 20.9578 42.8887 22.2601 44.1798Z" fill="#EC1E24"/>
<path d="M15.7259 39.5318C14.6144 40.677 13.4917 41.8221 12.369 42.9673C12.268 43.0683 12.1669 43.2367 12.0434 43.2592C11.8301 43.2929 11.5045 43.3378 11.3923 43.2143C11.2575 43.0683 11.2238 42.7427 11.2688 42.5294C11.3024 42.361 11.5157 42.2151 11.6617 42.0691C12.8406 40.8903 14.0194 39.7114 15.1982 38.5326C15.7371 37.9937 15.928 37.9937 16.4894 38.555C16.7925 38.8582 17.1069 39.1613 17.41 39.4532C17.4324 39.4757 17.4774 39.4757 17.6345 39.6104C17.9601 39.2287 18.2857 38.8357 18.6225 38.4652C20.5536 36.3208 22.9562 35.3216 25.8528 35.4002C28.5585 35.4676 31.2755 35.389 33.9925 35.4339C34.5987 35.4451 35.205 35.6584 35.8112 35.7707C35.8449 35.8718 35.8898 35.9728 35.9235 36.0626C36.5747 35.3553 37.2259 34.6368 37.8883 33.9295C38.4384 33.3456 39.011 32.7731 39.5611 32.2005C40.3582 31.3809 42.1546 31.3135 42.9629 32.0658C44.0071 33.0537 44.1418 34.6031 43.1762 35.6472C42.177 36.7362 41.0992 37.7467 40.0551 38.802C38.9998 39.8574 37.9332 40.9127 36.8778 41.9793C35.5643 43.3153 33.9812 44.0002 32.1063 44.0114C29.7486 44.0226 27.3909 44.0451 25.0332 44.0002C24.1238 43.9777 23.5625 44.3931 22.9674 45.2239C23.3491 45.5495 23.7645 45.8639 24.135 46.2232C24.5617 46.6273 24.5392 46.8856 24.1238 47.3122C23.7309 47.7164 23.3267 48.1093 22.9337 48.5023C22.6531 48.7829 22.3387 48.8615 22.0468 48.5472C21.7773 48.2553 21.8672 47.9521 22.1254 47.7051C22.4397 47.4132 22.7766 47.1438 23.0685 46.8968C20.5985 44.4044 18.2071 42.013 15.7259 39.5318ZM22.2601 44.1798C22.3162 44.1349 22.4397 44.0676 22.5183 43.9665C23.2144 43.1132 24.1238 42.855 25.2016 42.8775C27.4695 42.9224 29.7261 42.8887 31.994 42.8999C33.4648 42.8999 34.7671 42.4621 35.8225 41.4292C37.9669 39.3185 40.0888 37.1853 42.2107 35.0409C42.8394 34.4122 42.8394 33.6151 42.2781 33.0425C41.7279 32.4924 40.8971 32.5261 40.2796 33.1436C39.112 34.3 37.9332 35.4563 36.7992 36.6464C36.6196 36.8261 36.5073 37.1629 36.5186 37.4099C36.5522 38.701 35.6316 39.7227 34.3293 39.7563C33.9588 39.7676 33.5771 39.7563 33.2066 39.7563C32.3084 39.7563 31.4102 39.7676 30.512 39.7563C30.1528 39.7563 29.8946 39.5655 29.9058 39.1725C29.917 38.8133 30.1416 38.6449 30.5008 38.6336C30.6917 38.6336 30.8713 38.6336 31.0622 38.6336C32.1512 38.6336 33.229 38.6449 34.318 38.6224C34.9131 38.6112 35.3846 38.1396 35.3846 37.6007C35.3958 37.0169 34.9468 36.5791 34.3068 36.5342C34.1945 36.5229 34.0823 36.5342 33.97 36.5342C31.1071 36.5342 28.2442 36.5678 25.3812 36.5229C22.2938 36.4668 20.228 38.1958 18.4204 40.3401C19.6891 41.6313 20.9578 42.8887 22.2601 44.1798Z" fill="black" fill-opacity="0.3"/>
<path d="M25.2094 19.3633C22.6788 19.3633 20.625 21.4171 20.625 23.9477C20.625 26.4783 22.6788 28.5321 25.2094 28.5321C27.74 28.5321 29.7938 26.4783 29.7938 23.9477C29.7938 21.4171 27.74 19.3633 25.2094 19.3633ZM25.2094 27.6152C23.1877 27.6152 21.5419 25.9694 21.5419 23.9477C21.5419 21.926 23.1877 20.2802 25.2094 20.2802C27.2311 20.2802 28.8769 21.926 28.8769 23.9477C28.8769 25.9694 27.2311 27.6152 25.2094 27.6152ZM25.3515 23.5534C24.5401 23.3471 24.2788 23.1225 24.2788 22.7878C24.2788 22.4027 24.6409 22.1323 25.2415 22.1323C25.8741 22.1323 26.1125 22.4348 26.1309 22.8841H26.9148C26.8919 22.2698 26.516 21.7059 25.7733 21.5225V20.7386H24.7051V21.5134C24.0129 21.6601 23.4582 22.1093 23.4582 22.8016C23.4582 23.6222 24.1412 24.0348 25.1361 24.2732C26.03 24.4841 26.2088 24.8004 26.2088 25.1305C26.2088 25.3734 26.03 25.7677 25.2461 25.7677C24.5126 25.7677 24.2238 25.4376 24.1825 25.0159H23.394C23.4398 25.7952 24.0175 26.2353 24.7051 26.3774V27.1568H25.7779V26.3912C26.4747 26.2582 27.0248 25.8594 27.0294 25.1213C27.0248 24.1127 26.1584 23.7643 25.3515 23.5534Z" fill="#EC1E24"/>
<path d="M25.2094 19.3633C22.6788 19.3633 20.625 21.4171 20.625 23.9477C20.625 26.4783 22.6788 28.5321 25.2094 28.5321C27.74 28.5321 29.7938 26.4783 29.7938 23.9477C29.7938 21.4171 27.74 19.3633 25.2094 19.3633ZM25.2094 27.6152C23.1877 27.6152 21.5419 25.9694 21.5419 23.9477C21.5419 21.926 23.1877 20.2802 25.2094 20.2802C27.2311 20.2802 28.8769 21.926 28.8769 23.9477C28.8769 25.9694 27.2311 27.6152 25.2094 27.6152ZM25.3515 23.5534C24.5401 23.3471 24.2788 23.1225 24.2788 22.7878C24.2788 22.4027 24.6409 22.1323 25.2415 22.1323C25.8741 22.1323 26.1125 22.4348 26.1309 22.8841H26.9148C26.8919 22.2698 26.516 21.7059 25.7733 21.5225V20.7386H24.7051V21.5134C24.0129 21.6601 23.4582 22.1093 23.4582 22.8016C23.4582 23.6222 24.1412 24.0348 25.1361 24.2732C26.03 24.4841 26.2088 24.8004 26.2088 25.1305C26.2088 25.3734 26.03 25.7677 25.2461 25.7677C24.5126 25.7677 24.2238 25.4376 24.1825 25.0159H23.394C23.4398 25.7952 24.0175 26.2353 24.7051 26.3774V27.1568H25.7779V26.3912C26.4747 26.2582 27.0248 25.8594 27.0294 25.1213C27.0248 24.1127 26.1584 23.7643 25.3515 23.5534Z" fill="black" fill-opacity="0.3"/>
</svg>
