<svg width="60" height="60" viewBox="0 0 60 60" fill="none" xmlns="http://www.w3.org/2000/svg">
<path d="M30 18C30.2761 18 30.5 17.7761 30.5 17.5V15.5C30.5 15.2239 30.2761 15 30 15C29.7239 15 29.5 15.2239 29.5 15.5V17.5C29.5 17.7761 29.7238 18 30 18Z" fill="#C49800"/>
<path d="M23.8168 17.2911L24.8168 19.0226C24.9533 19.2626 25.2585 19.3466 25.4986 19.2101C25.7387 19.0736 25.8226 18.7683 25.6861 18.5283C25.685 18.5263 25.6839 18.5244 25.6828 18.5225L24.6828 16.791C24.5463 16.551 24.241 16.467 24.001 16.6035C23.7609 16.74 23.677 17.0453 23.8135 17.2853C23.8146 17.2873 23.8157 17.2892 23.8168 17.2911Z" fill="#C49800"/>
<path d="M19.7853 21.6797C19.7872 21.6808 19.7891 21.6819 19.7911 21.683L21.5225 22.683C21.7608 22.8226 22.0671 22.7427 22.2067 22.5045C22.3463 22.2662 22.2665 21.9599 22.0282 21.8203C22.0263 21.8192 22.0244 21.8181 22.0225 21.817L20.291 20.817C20.0527 20.6774 19.7464 20.7573 19.6068 20.9955C19.4672 21.2337 19.5471 21.5401 19.7853 21.6797Z" fill="#C49800"/>
<path d="M21 26.9998C21 26.7236 20.7761 26.4998 20.5 26.4998H18.5C18.2239 26.4998 18 26.7236 18 26.9998C18 27.2759 18.2239 27.4997 18.5 27.4997H20.5C20.7761 27.4997 21 27.2759 21 26.9998Z" fill="#C49800"/>
<path d="M21.5284 31.3134C21.5265 31.3146 21.5245 31.3157 21.5226 31.3168L19.7911 32.3168C19.551 32.4532 19.467 32.7585 19.6035 32.9985C19.7399 33.2386 20.0452 33.3226 20.2852 33.1862C20.2872 33.185 20.2891 33.1839 20.291 33.1828L22.0225 32.1828C22.2626 32.0464 22.3466 31.7411 22.2101 31.5011C22.0737 31.261 21.7684 31.177 21.5284 31.3134Z" fill="#C49800"/>
<path d="M40.2144 32.3202C40.2125 32.3191 40.2106 32.3179 40.2086 32.3168L38.4771 31.3168C38.2389 31.1771 37.9326 31.257 37.7929 31.4952C37.6532 31.7334 37.7331 32.0397 37.9713 32.1794C37.9732 32.1806 37.9751 32.1817 37.9771 32.1828L39.7086 33.1828C39.9467 33.3225 40.2531 33.2426 40.3928 33.0044C40.5325 32.7662 40.4526 32.4599 40.2144 32.3202Z" fill="#C49800"/>
<path d="M41.5 26.4998H39.5C39.2239 26.4998 39 26.7236 39 26.9998C39 27.2759 39.2239 27.4997 39.5 27.4997H41.5C41.7761 27.4997 42 27.2759 42 26.9998C42 26.7236 41.7761 26.4998 41.5 26.4998Z" fill="#C49800"/>
<path d="M38.2277 22.7498C38.3154 22.7498 38.4017 22.7267 38.4777 22.6828L40.2091 21.6828C40.4492 21.5463 40.5331 21.241 40.3966 21.001C40.2601 20.7609 39.9549 20.677 39.7148 20.8135C39.7129 20.8146 39.711 20.8157 39.7091 20.8168L37.9776 21.8168C37.7385 21.9549 37.6565 22.2607 37.7946 22.4998C37.884 22.6545 38.049 22.7498 38.2277 22.7498Z" fill="#C49800"/>
<path d="M34.4992 19.2058C34.4994 19.2059 34.4996 19.206 34.4998 19.2061C34.739 19.344 35.0448 19.262 35.1827 19.0227C35.1827 19.0226 35.1828 19.0226 35.1828 19.0226L36.1828 17.2911C36.3225 17.0529 36.2426 16.7465 36.0044 16.6069C35.7662 16.4672 35.4598 16.547 35.3201 16.7852C35.319 16.7872 35.3179 16.7891 35.3168 16.791L34.3168 18.5225C34.1785 18.7616 34.2602 19.0675 34.4992 19.2058Z" fill="#C49800"/>
<path d="M30.9999 34.9997C31.2761 34.9997 31.4999 34.7758 31.4999 34.4997V28.9997H32.4999C33.6045 28.9997 34.4999 28.1043 34.4999 26.9997C34.4999 25.8952 33.6045 24.9998 32.4999 24.9998C31.3954 24.9998 30.4999 25.8952 30.4999 26.9997V27.9997H29.4999V26.9997C29.4999 25.8952 28.6045 24.9998 27.5 24.9998C26.3954 24.9998 25.5 25.8952 25.5 26.9997C25.5 28.1043 26.3954 28.9997 27.5 28.9997H28.5V34.4997C28.5 34.7758 28.7238 34.9997 29 34.9997C29.2761 34.9997 29.4999 34.7758 29.4999 34.4997V28.9997H30.4999V34.4997C30.4999 34.7758 30.7237 34.9997 30.9999 34.9997ZM31.4999 26.9997C31.4999 26.4474 31.9476 25.9997 32.4999 25.9997C33.0522 25.9997 33.4999 26.4474 33.4999 26.9997C33.4999 27.552 33.0522 27.9997 32.4999 27.9997H31.4999V26.9997ZM28.5 27.9997H27.5C26.9477 27.9997 26.5 27.552 26.5 26.9997C26.5 26.4474 26.9477 25.9997 27.5 25.9997C28.0523 25.9997 28.5 26.4474 28.5 26.9997V27.9997Z" fill="#C49800"/>
<path d="M30.3882 19.0094C25.9751 18.7974 22.2256 22.203 22.0136 26.6162C21.8922 29.1431 22.9733 31.5786 24.9288 33.1837C25.2812 33.4598 25.4909 33.8796 25.4998 34.3272V35.4997C25.5024 36.1331 25.9026 36.6965 26.4998 36.9077V37.4997C26.5011 37.8698 26.6401 38.2263 26.8898 38.4996C26.3698 39.0649 26.3698 39.9344 26.8898 40.4996C26.3339 41.109 26.3773 42.0536 26.9866 42.6095C27.2635 42.862 27.6251 43.0012 27.9998 42.9996C28.2689 43.0067 28.4928 42.7942 28.4998 42.525C28.5026 42.42 28.4713 42.3169 28.4108 42.2311C28.3949 42.2005 28.3762 42.1715 28.3548 42.1446C28.3136 42.107 28.2667 42.0762 28.2158 42.0536C28.2013 42.0461 28.1868 42.0401 28.1718 42.0341C28.1211 42.0157 28.0681 42.005 28.0143 42.0026C28.0093 42.0026 28.0048 41.9996 27.9998 41.9996C27.7236 41.9996 27.4998 41.7757 27.4998 41.4996C27.4998 41.2235 27.7236 40.9996 27.9998 40.9996H29.9997C30.2759 40.9996 30.4997 40.7757 30.4997 40.4996C30.4997 40.2235 30.2759 39.9996 29.9997 39.9996H27.9998C27.7236 39.9996 27.4998 39.7758 27.4998 39.4996C27.4998 39.2235 27.7236 38.9996 27.9998 38.9996H29.9997C30.2759 38.9996 30.4997 38.7758 30.4997 38.4996C30.4997 38.2235 30.2759 37.9997 29.9997 37.9997H27.9998C27.7236 37.9997 27.4998 37.7758 27.4998 37.4997V36.9997H29.9997C30.2759 36.9997 30.4997 36.7758 30.4997 36.4997C30.4997 36.2235 30.2759 35.9997 29.9997 35.9997H26.9998C26.7236 35.9997 26.4998 35.7758 26.4998 35.4997V34.3272C26.4916 33.5796 26.1473 32.8753 25.5623 32.4097C22.5756 29.9551 22.1443 25.5441 24.5989 22.5573C26.003 20.8489 28.1318 19.9044 30.3407 20.0099C34.0349 20.2296 36.9367 23.2571 36.9997 26.9573C37.0176 29.0855 36.0607 31.1049 34.4022 32.4387C33.8216 32.917 33.4896 33.633 33.4997 34.3852V35.4997C33.4997 35.7758 33.2758 35.9997 32.9997 35.9997H31.4997C31.2236 35.9997 30.9997 36.2235 30.9997 36.4997C30.9997 36.7758 31.2236 36.9997 31.4997 36.9997H32.4997V37.4997C32.4997 37.7758 32.2758 37.9997 31.9997 37.9997H31.4997C31.2236 37.9997 30.9997 38.2235 30.9997 38.4996C30.9997 38.7758 31.2236 38.9996 31.4997 38.9996H31.9997C32.2758 38.9996 32.4997 39.2235 32.4997 39.4996C32.4997 39.7758 32.2758 39.9996 31.9997 39.9996H31.4997C31.2236 39.9996 30.9997 40.2235 30.9997 40.4996C30.9997 40.7757 31.2236 40.9996 31.4997 40.9996H31.9997C32.2758 40.9996 32.4997 41.2235 32.4997 41.4996C32.4997 41.7757 32.2758 41.9996 31.9997 41.9996H29.4997C29.2236 41.9996 28.9998 42.2235 28.9998 42.4996C28.9998 42.7757 29.2236 42.9996 29.4997 42.9996H31.4142C31.1382 43.7806 30.2812 44.19 29.5001 43.914C29.261 43.8295 29.0472 43.6856 28.8788 43.4961C28.6951 43.2898 28.379 43.2715 28.1728 43.4551C27.9665 43.6387 27.9481 43.9548 28.1318 44.1611C29.0462 45.1915 30.6228 45.2856 31.6532 44.3712C32.0788 43.9935 32.3625 43.4817 32.4572 42.9206C33.2403 42.6758 33.6766 41.8427 33.432 41.0596C33.367 40.8516 33.2569 40.6604 33.1097 40.4996C33.6297 39.9344 33.6297 39.0649 33.1097 38.4996C33.3594 38.2263 33.4984 37.8698 33.4997 37.4997V36.9077C34.0969 36.6965 34.4971 36.1331 34.4997 35.4997V34.3852C34.493 33.936 34.6876 33.5073 35.0302 33.2167C36.9267 31.692 38.0208 29.3831 37.9997 26.9498C37.9274 22.7206 34.6106 19.2604 30.3882 19.0094Z" fill="#C49800"/>
</svg>
