<svg width="20" height="20" viewBox="0 0 20 20" fill="none" xmlns="http://www.w3.org/2000/svg">
<g clip-path="url(#clip0_1464:389)">
<path d="M10 1.99998C10.1841 1.99998 10.3334 1.85073 10.3334 1.66665V0.33333C10.3334 0.149248 10.1841 0 10 0C9.81594 0 9.66669 0.149248 9.66669 0.33333V1.66665C9.66669 1.85073 9.8159 1.99998 10 1.99998Z" fill="#C49800"/>
<path d="M5.87807 1.52739L6.54473 2.68171C6.63573 2.84175 6.83923 2.89771 6.99927 2.80671C7.15931 2.71571 7.21526 2.51221 7.12427 2.35217C7.12356 2.35088 7.12281 2.34963 7.12206 2.34834L6.4554 1.19402C6.3644 1.03398 6.1609 0.978021 6.00086 1.06902C5.84082 1.16002 5.78486 1.36352 5.87586 1.52356C5.87657 1.52485 5.87732 1.52614 5.87807 1.52739Z" fill="#C49800"/>
<path d="M3.19026 4.45296C3.19151 4.45371 3.19281 4.45442 3.1941 4.45517L4.34842 5.12183C4.50725 5.21492 4.71146 5.16167 4.80454 5.00283C4.89762 4.844 4.84437 4.6398 4.68554 4.54671C4.68429 4.54596 4.683 4.54526 4.68171 4.54451L3.52739 3.87785C3.36855 3.78476 3.16435 3.83801 3.07127 3.99684C2.97818 4.15563 3.03143 4.35988 3.19026 4.45296Z" fill="#C49800"/>
<path d="M4.00009 7.99983C4.00009 7.81575 3.85084 7.6665 3.66676 7.6665H2.33344C2.14936 7.6665 2.00011 7.81575 2.00011 7.99983C2.00011 8.18391 2.14936 8.33316 2.33344 8.33316H3.66676C3.85084 8.33316 4.00009 8.18391 4.00009 7.99983Z" fill="#C49800"/>
<path d="M4.35229 10.8756C4.351 10.8764 4.34971 10.8771 4.34841 10.8779L3.19409 11.5445C3.03405 11.6355 2.97805 11.839 3.06901 11.999C3.15997 12.1591 3.36347 12.2151 3.52351 12.1241C3.5248 12.1234 3.52609 12.1226 3.52738 12.1219L4.6817 11.4552C4.84174 11.3642 4.89774 11.1607 4.80678 11.0007C4.71583 10.8407 4.51233 10.7847 4.35229 10.8756Z" fill="#C49800"/>
<path d="M16.8098 11.5468C16.8085 11.546 16.8072 11.5453 16.806 11.5445L15.6516 10.8779C15.4928 10.7848 15.2886 10.838 15.1955 10.9968C15.1023 11.1556 15.1556 11.3598 15.3144 11.453C15.3157 11.4537 15.317 11.4545 15.3183 11.4552L16.4726 12.1219C16.6314 12.215 16.8356 12.1617 16.9287 12.0029C17.0219 11.8441 16.9686 11.6399 16.8098 11.5468Z" fill="#C49800"/>
<path d="M17.6666 7.6665H16.3333C16.1492 7.6665 16 7.81575 16 7.99983C16 8.18391 16.1492 8.33316 16.3333 8.33316H17.6666C17.8507 8.33316 17.9999 8.18391 17.9999 7.99983C17.9999 7.81575 17.8507 7.6665 17.6666 7.6665Z" fill="#C49800"/>
<path d="M15.4853 5.16652C15.5438 5.16652 15.6013 5.15111 15.652 5.12186L16.8063 4.4552C16.9663 4.3642 17.0223 4.1607 16.9313 4.00066C16.8403 3.84062 16.6368 3.78466 16.4768 3.87566C16.4755 3.87637 16.4742 3.87712 16.4729 3.87787L15.3186 4.54453C15.1592 4.63657 15.1046 4.84044 15.1966 4.99986C15.2562 5.10298 15.3662 5.16652 15.4853 5.16652Z" fill="#C49800"/>
<path d="M12.9996 2.80384C12.9997 2.80393 12.9998 2.80401 13 2.80405C13.1594 2.89601 13.3633 2.8413 13.4552 2.6818C13.4552 2.68176 13.4553 2.68172 13.4553 2.68172L14.122 1.5274C14.2151 1.36861 14.1618 1.16436 14.003 1.07124C13.8442 0.978112 13.64 1.03136 13.5469 1.19015C13.5461 1.19144 13.5454 1.19273 13.5446 1.19403L12.878 2.34835C12.7858 2.50772 12.8402 2.71164 12.9996 2.80384Z" fill="#C49800"/>
<path d="M10.6667 13.3331C10.8508 13.3331 11 13.1839 11 12.9998V9.33314H11.6667C12.403 9.33314 13 8.73619 13 7.99982C13 7.26346 12.403 6.6665 11.6667 6.6665C10.9303 6.6665 10.3334 7.26346 10.3334 7.99982V8.66648H9.66669V7.99982C9.66669 7.26346 9.06974 6.6665 8.33338 6.6665C7.59701 6.6665 7.00006 7.26346 7.00006 7.99982C7.00006 8.73619 7.59701 9.33314 8.33338 9.33314H9.00004V12.9998C9.00004 13.1839 9.14928 13.3331 9.33336 13.3331C9.51745 13.3331 9.66669 13.1839 9.66669 12.9998V9.33314H10.3334V12.9998C10.3334 13.1839 10.4826 13.3331 10.6667 13.3331ZM11 7.99982C11 7.63162 11.2985 7.33316 11.6667 7.33316C12.0349 7.33316 12.3333 7.63162 12.3333 7.99982C12.3333 8.36803 12.0349 8.66648 11.6667 8.66648H11V7.99982ZM9.00004 8.66648H8.33338C7.96517 8.66648 7.66672 8.36803 7.66672 7.99982C7.66672 7.63162 7.96517 7.33316 8.33338 7.33316C8.70158 7.33316 9.00004 7.63162 9.00004 7.99982V8.66648Z" fill="#C49800"/>
<path d="M10.259 2.67276C7.31693 2.53143 4.81729 4.80186 4.67596 7.74395C4.595 9.42859 5.3157 11.0522 6.6194 12.1223C6.85435 12.3064 6.99414 12.5863 7.00006 12.8846V13.6663C7.00181 14.0885 7.2686 14.4642 7.66672 14.6049V14.9996C7.6676 15.2464 7.76026 15.4841 7.92672 15.6663C7.58005 16.0431 7.58005 16.6228 7.92672 16.9996C7.55614 17.4058 7.58506 18.0356 7.9913 18.4062C8.17584 18.5745 8.41692 18.6673 8.66671 18.6662C8.84613 18.6709 8.99542 18.5293 9.00008 18.3499C9.00192 18.2799 8.98108 18.2111 8.94071 18.1539C8.93017 18.1335 8.91767 18.1142 8.90337 18.0962C8.87596 18.0712 8.84467 18.0507 8.81071 18.0356C8.80104 18.0306 8.79138 18.0266 8.78138 18.0226C8.74763 18.0103 8.71225 18.0032 8.67638 18.0016C8.67304 18.0016 8.67004 17.9996 8.66671 17.9996C8.48263 17.9996 8.33338 17.8503 8.33338 17.6662C8.33338 17.4822 8.48263 17.3329 8.66671 17.3329H10C10.1841 17.3329 10.3334 17.1837 10.3334 16.9996C10.3334 16.8155 10.1841 16.6663 10 16.6663H8.66671C8.48263 16.6663 8.33338 16.517 8.33338 16.3329C8.33338 16.1488 8.48263 15.9996 8.66671 15.9996H10C10.1841 15.9996 10.3334 15.8503 10.3334 15.6663C10.3334 15.4822 10.1841 15.3329 10 15.3329H8.66671C8.48263 15.3329 8.33338 15.1837 8.33338 14.9996V14.6663H10C10.1841 14.6663 10.3334 14.517 10.3334 14.333C10.3334 14.1489 10.1841 13.9996 10 13.9996H8.00005C7.81597 13.9996 7.66672 13.8504 7.66672 13.6663V12.8846C7.66126 12.3862 7.43172 11.9167 7.04173 11.6063C5.05058 9.96992 4.76304 7.02921 6.39944 5.03806C7.33552 3.89908 8.75475 3.26942 10.2274 3.33975C12.6901 3.48625 14.6246 5.5046 14.6666 7.97136C14.6786 9.39018 14.0407 10.7365 12.935 11.6257C12.5479 11.9445 12.3266 12.4219 12.3333 12.9233V13.6663C12.3333 13.8504 12.1841 13.9996 12 13.9996H11C10.8159 13.9996 10.6667 14.1489 10.6667 14.333C10.6667 14.517 10.8159 14.6663 11 14.6663H11.6667V14.9996C11.6667 15.1837 11.5174 15.3329 11.3333 15.3329H11C10.8159 15.3329 10.6667 15.4822 10.6667 15.6663C10.6667 15.8503 10.8159 15.9996 11 15.9996H11.3333C11.5174 15.9996 11.6667 16.1488 11.6667 16.3329C11.6667 16.517 11.5174 16.6663 11.3333 16.6663H11C10.8159 16.6663 10.6667 16.8155 10.6667 16.9996C10.6667 17.1837 10.8159 17.3329 11 17.3329H11.3333C11.5174 17.3329 11.6667 17.4822 11.6667 17.6662C11.6667 17.8503 11.5174 17.9996 11.3333 17.9996H9.6667C9.48262 17.9996 9.33337 18.1488 9.33337 18.3329C9.33337 18.517 9.48262 18.6662 9.6667 18.6662H10.943C10.759 19.1869 10.1877 19.4598 9.66695 19.2758C9.50754 19.2195 9.36504 19.1236 9.2527 18.9972C9.13029 18.8597 8.91954 18.8475 8.78204 18.9699C8.64454 19.0923 8.63229 19.3031 8.75471 19.4406C9.36433 20.1275 10.4154 20.1902 11.1024 19.5806C11.3861 19.3288 11.5752 18.9876 11.6383 18.6136C12.1604 18.4504 12.4513 17.8949 12.2882 17.3729C12.2448 17.2342 12.1715 17.1068 12.0733 16.9996C12.42 16.6228 12.42 16.0431 12.0733 15.6663C12.2398 15.4841 12.3325 15.2464 12.3333 14.9996V14.6049C12.7315 14.4642 12.9982 14.0885 13 13.6663V12.9233C12.9955 12.6238 13.1253 12.3381 13.3537 12.1443C14.618 11.1279 15.3474 9.58855 15.3333 7.96636C15.2851 5.1469 13.0739 2.84013 10.259 2.67276Z" fill="#C49800"/>
</g>
<defs>
<clipPath id="clip0_1464:389">
<rect width="20" height="20" fill="white"/>
</clipPath>
</defs>
</svg>
