<svg width="30" height="30" viewBox="0 0 30 30" fill="none" xmlns="http://www.w3.org/2000/svg">
<g clip-path="url(#clip0_212_1096)">
<path d="M22.9872 4.97357C23.0002 4.97452 23.0133 4.97547 23.0266 4.97547C23.0491 4.97547 23.0717 4.97357 23.0938 4.97049C23.6845 4.98259 24.1572 5.46437 24.1579 6.05507C24.1579 6.32349 24.3756 6.54112 24.644 6.54112C24.9124 6.54112 25.13 6.32349 25.13 6.05507C25.1288 5.08891 24.4562 4.25305 23.5126 4.04515V3.57809C23.5126 3.30967 23.295 3.09204 23.0266 3.09204C22.7582 3.09204 22.5405 3.30967 22.5405 3.57809V4.06722C21.5428 4.33397 20.8973 5.29919 21.0319 6.32325C21.1664 7.34732 22.0393 8.11294 23.0722 8.11294C23.6719 8.11294 24.1579 8.59922 24.1579 9.19895C24.1579 9.79844 23.6719 10.2847 23.0722 10.2847C22.4724 10.2847 21.9864 9.79844 21.9864 9.19895C21.9864 8.93053 21.7688 8.7129 21.5003 8.7129C21.2319 8.7129 21.0143 8.93053 21.0143 9.19895C21.0155 10.1302 21.6411 10.945 22.5405 11.1868V11.7194C22.5405 11.9878 22.7582 12.2054 23.0266 12.2054C23.295 12.2054 23.5126 11.9878 23.5126 11.7194V11.2091C24.5391 10.9844 25.2314 10.0222 25.1182 8.97752C25.0052 7.93281 24.123 7.14108 23.0722 7.14132C22.489 7.14156 22.0099 6.68114 21.9869 6.0985C21.9641 5.51587 22.4057 5.01914 22.9872 4.97381V4.97357Z" fill="#7D4D7D"/>
<path d="M23.0998 0.715576C20.1097 0.715576 17.558 2.66664 16.602 5.27914H4.53842C4.27119 5.27914 4.05427 5.52003 4.05237 5.78702L3.9375 22.8376H0.498863C0.230445 22.8376 0 23.0319 0 23.3008V25.4646C0.00617049 27.5015 1.61051 29.1749 3.64535 29.267V29.2777H18.6521V29.2634C18.7736 29.268 18.8236 29.2777 18.9005 29.2777H18.911C21.017 29.2744 22.7227 27.5661 22.7227 25.46V14.5202C22.8442 14.5268 22.9728 14.5304 23.0986 14.5304C26.9037 14.5304 30.0001 11.4281 30.0001 7.62275C30.0001 3.81768 26.9051 0.715576 23.0998 0.715576ZM3.83023 28.3056H3.82715C2.25485 28.3035 0.979214 27.0321 0.972094 25.4596V23.8097H15.0675V25.4527C15.0682 26.467 15.4733 27.4394 16.1929 28.1544C16.2439 28.2054 16.3073 28.2448 16.3607 28.3056H3.83023ZM21.7506 25.4596C21.7508 27.0292 20.48 28.3025 18.9105 28.3056H18.9013C17.3254 28.3027 16.0474 27.0288 16.0396 25.4532V23.3008C16.0436 23.1765 15.9961 23.0562 15.9081 22.9683C15.82 22.8805 15.6997 22.8333 15.5756 22.8376H4.9096L5.02114 6.25124H16.3322C16.246 6.69623 16.2014 7.1481 16.199 7.60116C16.1981 8.55925 16.3979 9.50666 16.7857 10.3826H12.1948C11.9262 10.3826 11.7088 10.6003 11.7088 10.8687C11.7088 11.1371 11.9262 11.3547 12.1948 11.3547H17.3131C18.3158 12.9315 19.9187 14.0308 21.7506 14.3987V25.4596ZM23.0998 13.5585C19.8256 13.5585 17.1711 10.9043 17.1714 7.62987C17.1714 4.35547 19.8256 1.7012 23.1001 1.7012C26.3742 1.7012 29.0285 4.3557 29.0285 7.62987C29.0249 10.9026 26.3728 13.555 23.0998 13.5585Z" fill="#7D4D7D"/>
<path d="M9.07473 13.6177C8.21679 13.6177 7.51904 14.2934 7.51904 15.124C7.51904 15.9547 8.21679 16.6303 9.07473 16.6303C9.93267 16.6303 10.6307 15.9547 10.6307 15.124C10.6307 14.2934 9.93267 13.6177 9.07473 13.6177ZM9.07473 15.6582C8.75268 15.6582 8.49114 15.4185 8.49114 15.124C8.49114 14.8292 8.75291 14.5898 9.07473 14.5898C9.39655 14.5898 9.65856 14.8295 9.65856 15.124C9.65856 15.4185 9.39655 15.6582 9.07473 15.6582Z" fill="#7D4D7D"/>
<path d="M11.709 15.1218C11.709 15.3902 11.9264 15.6079 12.195 15.6079H18.675C18.9434 15.6079 19.1611 15.3902 19.1611 15.1218C19.1611 14.8534 18.9434 14.6357 18.675 14.6357H12.195C11.9264 14.6357 11.709 14.8534 11.709 15.1218Z" fill="#7D4D7D"/>
<path d="M9.07473 9.39258C8.21679 9.39258 7.51904 10.0685 7.51904 10.8991C7.51904 11.7298 8.21679 12.4055 9.07473 12.4055C9.93267 12.4055 10.6307 11.7298 10.6307 10.8991C10.6307 10.0685 9.93267 9.39258 9.07473 9.39258ZM9.07473 11.4334C8.75268 11.4334 8.49114 11.1937 8.49114 10.8991C8.49114 10.6046 8.75291 10.3647 9.07473 10.3647C9.39655 10.3647 9.65856 10.6044 9.65856 10.8991C9.65856 11.1937 9.39655 11.4336 9.07473 11.4336V11.4334Z" fill="#7D4D7D"/>
<path d="M9.07473 17.8423C8.21679 17.8423 7.51904 18.5179 7.51904 19.3486C7.51904 20.1792 8.21679 20.8549 9.07473 20.8549C9.93267 20.8549 10.6307 20.1792 10.6307 19.3486C10.6307 18.5179 9.93267 17.8423 9.07473 17.8423ZM9.07473 19.8828C8.75268 19.8828 8.49114 19.6433 8.49114 19.3486C8.49114 19.0541 8.75291 18.8144 9.07473 18.8144C9.39655 18.8144 9.65856 19.0541 9.65856 19.3486C9.65856 19.6431 9.39655 19.8828 9.07473 19.8828Z" fill="#7D4D7D"/>
<path d="M18.675 18.8884H12.195C11.9264 18.8884 11.709 19.1061 11.709 19.3745C11.709 19.6429 11.9264 19.8605 12.195 19.8605H18.675C18.9434 19.8605 19.1611 19.6429 19.1611 19.3745C19.1611 19.1061 18.9434 18.8884 18.675 18.8884Z" fill="#7D4D7D"/>
</g>
<defs>
<clipPath id="clip0_212_1096">
<rect width="30" height="30" fill="white"/>
</clipPath>
</defs>
</svg>
