<svg width="26" height="26" viewBox="0 0 26 26" fill="none" xmlns="http://www.w3.org/2000/svg">
<path d="M21.3486 0H4.65136C2.0866 0 0 2.0866 0 4.65136V21.3487C0 23.9134 2.0866 26 4.65136 26H21.3487C23.9134 26 26 23.9134 26 21.3486V4.65136C26 2.0866 23.9134 0 21.3486 0ZM24.4766 21.3486C24.4766 23.0734 23.0734 24.4766 21.3486 24.4766H4.65136C2.92663 24.4766 1.52344 23.0734 1.52344 21.3486V4.65136C1.52344 2.92663 2.92663 1.52344 4.65136 1.52344H21.3487C23.0734 1.52344 24.4766 2.92663 24.4766 4.65136V21.3486Z" fill="#828282"/>
<path d="M21.9748 5.7111H10.3732C10.0543 4.76378 9.15825 4.07935 8.10474 4.07935C7.05123 4.07935 6.1552 4.76378 5.83624 5.7111H4.02533C3.60466 5.7111 3.26361 6.05215 3.26361 6.47282C3.26361 6.89349 3.60466 7.23454 4.02533 7.23454H5.83629C6.15525 8.18186 7.05128 8.86629 8.10479 8.86629C9.1583 8.86629 10.0543 8.18186 10.3733 7.23454H21.9748C22.3955 7.23454 22.7365 6.89349 22.7365 6.47282C22.7365 6.05215 22.3955 5.7111 21.9748 5.7111ZM8.10474 7.34285C7.62501 7.34285 7.2347 6.95255 7.2347 6.47282C7.2347 5.99309 7.62501 5.60278 8.10474 5.60278C8.58447 5.60278 8.97478 5.99309 8.97478 6.47282C8.97478 6.95255 8.58447 7.34285 8.10474 7.34285Z" fill="#828282"/>
<path d="M21.9748 12.2382H20.1638C19.8449 11.2909 18.9488 10.6064 17.8953 10.6064C16.8419 10.6064 15.9458 11.2909 15.6269 12.2382H4.02533C3.60466 12.2382 3.26361 12.5792 3.26361 12.9999C3.26361 13.4206 3.60466 13.7616 4.02533 13.7616H15.6269C15.9458 14.709 16.8419 15.3934 17.8954 15.3934C18.9488 15.3934 19.8449 14.709 20.1639 13.7616H21.9748C22.3955 13.7616 22.7365 13.4206 22.7365 12.9999C22.7365 12.5792 22.3955 12.2382 21.9748 12.2382ZM17.8954 13.87C17.4156 13.87 17.0253 13.4796 17.0253 12.9999C17.0253 12.5202 17.4156 12.1299 17.8954 12.1299C18.3751 12.1299 18.7654 12.5202 18.7654 12.9999C18.7654 13.4796 18.3751 13.87 17.8954 13.87Z" fill="#828282"/>
<path d="M21.9748 18.7655H13.6368C13.3178 17.8182 12.4218 17.1338 11.3683 17.1338C10.3148 17.1338 9.41876 17.8182 9.0998 18.7655H4.02533C3.60466 18.7655 3.26361 19.1066 3.26361 19.5273C3.26361 19.9479 3.60466 20.289 4.02533 20.289H9.0998C9.41876 21.2363 10.3148 21.9207 11.3683 21.9207C12.4218 21.9207 13.3178 21.2363 13.6368 20.289H21.9748C22.3955 20.289 22.7365 19.9479 22.7365 19.5273C22.7365 19.1066 22.3955 18.7655 21.9748 18.7655ZM11.3683 20.3973C10.8886 20.3973 10.4983 20.007 10.4983 19.5273C10.4983 19.0476 10.8886 18.6573 11.3683 18.6573C11.848 18.6573 12.2383 19.0475 12.2383 19.5273C12.2383 20.007 11.848 20.3973 11.3683 20.3973Z" fill="#828282"/>
</svg>
