<svg width="15" height="15" viewBox="0 0 15 15" fill="none" xmlns="http://www.w3.org/2000/svg">
<path d="M12.2059 4.4824H6.79412L5.71765 3.20298C5.68143 3.15946 5.62717 3.13504 5.57059 3.13681H1.20441C0.537794 3.14166 0 3.68343 0 4.35004V12.2192C0.000808824 12.8881 0.542868 13.4301 1.21176 13.4309H12.2059C12.8748 13.4301 13.4168 12.8881 13.4176 12.2192V5.69416C13.4168 5.02526 12.8748 4.48321 12.2059 4.4824Z" fill="#26A05B"/>
<path d="M13.7956 2.91453H8.38233L7.30586 1.63511C7.26965 1.59158 7.21539 1.56717 7.1588 1.56894H2.79411C2.18926 1.56993 1.67779 2.01677 1.59558 2.616H5.57645C5.7852 2.61548 5.9834 2.70761 6.11763 2.86747L7.03675 3.96011H12.2059C13.1619 3.96173 13.9366 4.7364 13.9382 5.69247V11.8513C14.5444 11.7757 14.9995 11.2607 15 10.6498V4.12482C14.9984 3.45934 14.461 2.91938 13.7956 2.91453Z" fill="#26A05B"/>
</svg>
