<svg width="40" height="40" viewBox="0 0 40 40" fill="none" xmlns="http://www.w3.org/2000/svg">
<rect width="40" height="40" fill="url(#paint0_linear_1382:18040)"/>
<path d="M24.8419 13.725C24.7752 13.725 24.7085 13.7083 24.6502 13.675C23.0502 12.85 21.6669 12.5 20.0085 12.5C18.3585 12.5 16.7919 12.8917 15.3669 13.675C15.1669 13.7833 14.9169 13.7083 14.8002 13.5083C14.6919 13.3083 14.7669 13.05 14.9669 12.9417C16.5169 12.1 18.2169 11.6667 20.0085 11.6667C21.7835 11.6667 23.3335 12.0583 25.0335 12.9333C25.2419 13.0417 25.3169 13.2917 25.2085 13.4917C25.1335 13.6417 24.9919 13.725 24.8419 13.725ZM12.9169 18.1C12.8335 18.1 12.7502 18.075 12.6752 18.025C12.4835 17.8917 12.4419 17.6333 12.5752 17.4417C13.4002 16.275 14.4502 15.3583 15.7002 14.7167C18.3169 13.3667 21.6669 13.3583 24.2919 14.7083C25.5419 15.35 26.5919 16.2583 27.4169 17.4167C27.5502 17.6 27.5085 17.8667 27.3169 18C27.1252 18.1333 26.8669 18.0917 26.7335 17.9C25.9835 16.85 25.0335 16.025 23.9085 15.45C21.5169 14.225 18.4585 14.225 16.0752 15.4583C14.9419 16.0417 13.9919 16.875 13.2419 17.925C13.1752 18.0417 13.0502 18.1 12.9169 18.1ZM18.1252 28.1583C18.0169 28.1583 17.9085 28.1167 17.8335 28.0333C17.1085 27.3083 16.7169 26.8417 16.1585 25.8333C15.5835 24.8083 15.2835 23.5583 15.2835 22.2167C15.2835 19.7417 17.4002 17.725 20.0002 17.725C22.6002 17.725 24.7169 19.7417 24.7169 22.2167C24.7169 22.45 24.5335 22.6333 24.3002 22.6333C24.0669 22.6333 23.8835 22.45 23.8835 22.2167C23.8835 20.2 22.1419 18.5583 20.0002 18.5583C17.8585 18.5583 16.1169 20.2 16.1169 22.2167C16.1169 23.4167 16.3835 24.525 16.8919 25.425C17.4252 26.3833 17.7919 26.7917 18.4335 27.4417C18.5919 27.6083 18.5919 27.8667 18.4335 28.0333C18.3419 28.1167 18.2335 28.1583 18.1252 28.1583ZM24.1002 26.6167C23.1085 26.6167 22.2335 26.3667 21.5169 25.875C20.2752 25.0333 19.5335 23.6667 19.5335 22.2167C19.5335 21.9833 19.7169 21.8 19.9502 21.8C20.1835 21.8 20.3669 21.9833 20.3669 22.2167C20.3669 23.3917 20.9669 24.5 21.9835 25.1833C22.5752 25.5833 23.2669 25.775 24.1002 25.775C24.3002 25.775 24.6335 25.75 24.9669 25.6917C25.1919 25.65 25.4085 25.8 25.4502 26.0333C25.4919 26.2583 25.3419 26.475 25.1085 26.5167C24.6335 26.6083 24.2169 26.6167 24.1002 26.6167ZM22.4252 28.3333C22.3919 28.3333 22.3502 28.325 22.3169 28.3167C20.9919 27.95 20.1252 27.4583 19.2169 26.5667C18.0502 25.4083 17.4085 23.8667 17.4085 22.2167C17.4085 20.8667 18.5585 19.7667 19.9752 19.7667C21.3919 19.7667 22.5419 20.8667 22.5419 22.2167C22.5419 23.1083 23.3169 23.8333 24.2752 23.8333C25.2335 23.8333 26.0085 23.1083 26.0085 22.2167C26.0085 19.075 23.3002 16.525 19.9669 16.525C17.6002 16.525 15.4335 17.8417 14.4585 19.8833C14.1335 20.5583 13.9669 21.35 13.9669 22.2167C13.9669 22.8667 14.0252 23.8917 14.5252 25.225C14.6085 25.4417 14.5002 25.6833 14.2835 25.7583C14.0669 25.8417 13.8252 25.725 13.7502 25.5167C13.3419 24.425 13.1419 23.3417 13.1419 22.2167C13.1419 21.2167 13.3335 20.3083 13.7085 19.5167C14.8169 17.1917 17.2752 15.6833 19.9669 15.6833C23.7585 15.6833 26.8419 18.6083 26.8419 22.2083C26.8419 23.5583 25.6919 24.6583 24.2752 24.6583C22.8585 24.6583 21.7085 23.5583 21.7085 22.2083C21.7085 21.3167 20.9335 20.5917 19.9752 20.5917C19.0169 20.5917 18.2419 21.3167 18.2419 22.2083C18.2419 23.6333 18.7919 24.9667 19.8002 25.9667C20.5919 26.75 21.3502 27.1833 22.5252 27.5083C22.7502 27.5667 22.8752 27.8 22.8169 28.0167C22.7752 28.2083 22.6002 28.3333 22.4252 28.3333Z" fill="#0E9549"/>
<defs>
<linearGradient id="paint0_linear_1382:18040" x1="20" y1="0" x2="20" y2="40" gradientUnits="userSpaceOnUse">
<stop stop-color="#D6FFE8"/>
<stop offset="1" stop-color="white"/>
</linearGradient>
</defs>
</svg>
