<svg width="90" height="90" viewBox="0 0 90 90" fill="none" xmlns="http://www.w3.org/2000/svg">
<path d="M18.9219 27.9743L44.3476 15.9704H37.1642L26.2944 6.70751C25.8218 6.23496 25.1602 6.0459 24.4984 6.0459H6.63432C5.02742 6.0459 3.79883 7.27468 3.79883 8.88139V27.9743H18.9219Z" fill="#828282"/>
<path d="M78.4688 27.9741H86.2194V18.8057C86.2194 17.1988 84.9907 15.9702 83.3839 15.9702H72.7979L78.4688 27.9741Z" fill="#828282"/>
<path d="M69.3003 7.369C68.5441 5.76211 66.5593 5.00606 64.858 5.85673L16.8423 28.5413H79.2248L69.3003 7.369Z" fill="#F9DF8A"/>
<path d="M89.2439 28.3526C88.6768 27.7854 87.9207 27.502 87.1645 27.502H86.2194H78.4688H18.9217H3.79866H2.85355C2.09733 27.502 1.34128 27.7854 0.774113 28.3526C0.206943 28.9198 -0.076551 29.6758 0.0178869 30.4321L2.85337 81.8504C2.94781 83.3627 4.17659 84.497 5.68886 84.497H84.3288C85.8411 84.497 87.0699 83.3628 87.1643 81.8504L90 30.4321C90 29.6758 89.7165 28.9196 89.2439 28.3526Z" fill="#BDBDBD"/>
</svg>
