<svg width="57" height="56" viewBox="0 0 57 56" fill="none" xmlns="http://www.w3.org/2000/svg">
<path d="M0.5 28C0.5 12.536 13.036 0 28.5 0C43.964 0 56.5 12.536 56.5 28C56.5 43.464 43.964 56 28.5 56C13.036 56 0.5 43.464 0.5 28Z" fill="url(#paint0_linear_1686_4752)"/>
<path d="M40.12 12.94C39.96 12.94 39.8 12.9 39.66 12.82C35.82 10.84 32.5 10 28.52 10C24.56 10 20.8 10.94 17.38 12.82C16.9 13.08 16.3 12.9 16.02 12.42C15.76 11.94 15.94 11.32 16.42 11.06C20.14 9.04 24.22 8 28.52 8C32.78 8 36.5 8.94 40.58 11.04C41.08 11.3 41.26 11.9 41 12.38C40.82 12.74 40.48 12.94 40.12 12.94ZM11.5 23.44C11.3 23.44 11.1 23.38 10.92 23.26C10.46 22.94 10.36 22.32 10.68 21.86C12.66 19.06 15.18 16.86 18.18 15.32C24.46 12.08 32.5 12.06 38.8 15.3C41.8 16.84 44.32 19.02 46.3 21.8C46.62 22.24 46.52 22.88 46.06 23.2C45.6 23.52 44.98 23.42 44.66 22.96C42.86 20.44 40.58 18.46 37.88 17.08C32.14 14.14 24.8 14.14 19.08 17.1C16.36 18.5 14.08 20.5 12.28 23.02C12.12 23.3 11.82 23.44 11.5 23.44ZM24 47.58C23.74 47.58 23.48 47.48 23.3 47.28C21.56 45.54 20.62 44.42 19.28 42C17.9 39.54 17.18 36.54 17.18 33.32C17.18 27.38 22.26 22.54 28.5 22.54C34.74 22.54 39.82 27.38 39.82 33.32C39.82 33.88 39.38 34.32 38.82 34.32C38.26 34.32 37.82 33.88 37.82 33.32C37.82 28.48 33.64 24.54 28.5 24.54C23.36 24.54 19.18 28.48 19.18 33.32C19.18 36.2 19.82 38.86 21.04 41.02C22.32 43.32 23.2 44.3 24.74 45.86C25.12 46.26 25.12 46.88 24.74 47.28C24.52 47.48 24.26 47.58 24 47.58ZM38.34 43.88C35.96 43.88 33.86 43.28 32.14 42.1C29.16 40.08 27.38 36.8 27.38 33.32C27.38 32.76 27.82 32.32 28.38 32.32C28.94 32.32 29.38 32.76 29.38 33.32C29.38 36.14 30.82 38.8 33.26 40.44C34.68 41.4 36.34 41.86 38.34 41.86C38.82 41.86 39.62 41.8 40.42 41.66C40.96 41.56 41.48 41.92 41.58 42.48C41.68 43.02 41.32 43.54 40.76 43.64C39.62 43.86 38.62 43.88 38.34 43.88ZM34.32 48C34.24 48 34.14 47.98 34.06 47.96C30.88 47.08 28.8 45.9 26.62 43.76C23.82 40.98 22.28 37.28 22.28 33.32C22.28 30.08 25.04 27.44 28.44 27.44C31.84 27.44 34.6 30.08 34.6 33.32C34.6 35.46 36.46 37.2 38.76 37.2C41.06 37.2 42.92 35.46 42.92 33.32C42.92 25.78 36.42 19.66 28.42 19.66C22.74 19.66 17.54 22.82 15.2 27.72C14.42 29.34 14.02 31.24 14.02 33.32C14.02 34.88 14.16 37.34 15.36 40.54C15.56 41.06 15.3 41.64 14.78 41.82C14.26 42.02 13.68 41.74 13.5 41.24C12.52 38.62 12.04 36.02 12.04 33.32C12.04 30.92 12.5 28.74 13.4 26.84C16.06 21.26 21.96 17.64 28.42 17.64C37.52 17.64 44.92 24.66 44.92 33.3C44.92 36.54 42.16 39.18 38.76 39.18C35.36 39.18 32.6 36.54 32.6 33.3C32.6 31.16 30.74 29.42 28.44 29.42C26.14 29.42 24.28 31.16 24.28 33.3C24.28 36.72 25.6 39.92 28.02 42.32C29.92 44.2 31.74 45.24 34.56 46.02C35.1 46.16 35.4 46.72 35.26 47.24C35.16 47.7 34.74 48 34.32 48Z" fill="white"/>
<defs>
<linearGradient id="paint0_linear_1686_4752" x1="7.96667" y1="7.65333" x2="43.62" y2="50.4" gradientUnits="userSpaceOnUse">
<stop stop-color="#EC0039"/>
<stop offset="0.864334" stop-color="#FC6767"/>
</linearGradient>
</defs>
</svg>
