<svg width="20" height="20" viewBox="0 0 20 20" fill="none" xmlns="http://www.w3.org/2000/svg">
<g clip-path="url(#clip0_1464:1709)">
<path d="M10 20C9.94051 20 9.88098 19.9909 9.82355 19.9728C7.53613 19.2505 5.57762 17.846 4.15961 15.9113C2.74168 13.9764 1.99219 11.6859 1.99219 9.28715V3.32031C1.99219 2.99672 2.25453 2.73438 2.57812 2.73438C4.27051 2.73438 5.80918 1.80641 6.59711 0.312578C6.69848 0.120352 6.89801 0 7.11535 0H12.8846C13.102 0 13.3015 0.120312 13.4029 0.312578C14.1908 1.80641 15.7295 2.73438 17.4184 2.73438C17.742 2.73438 18.0078 2.99672 18.0078 3.32031V9.28715C18.0078 11.6859 17.2583 13.9764 15.8404 15.9112C14.4224 17.846 12.4639 19.2504 10.1764 19.9728C10.119 19.9909 10.0595 20 10 20Z" fill="#9DDFF6"/>
<path d="M17.4184 2.73438C15.7295 2.73438 14.1908 1.80641 13.4029 0.312578C13.3015 0.120312 13.102 0 12.8846 0H10V20C10.0595 20 10.119 19.9909 10.1764 19.9728C12.4639 19.2505 14.4224 17.846 15.8404 15.9113C17.2583 13.9764 18.0078 11.6859 18.0078 9.28715V3.32031C18.0078 2.99672 17.742 2.73438 17.4184 2.73438Z" fill="#6BA7FF"/>
<path d="M10 17.5071C9.92332 17.5071 9.84664 17.4921 9.77449 17.462C6.47066 16.0843 4.33594 12.8755 4.33594 9.28719V5.29004C4.33594 5.03695 4.49844 4.81246 4.73887 4.7334C5.98254 4.32453 7.07785 3.57262 7.90637 2.55891C8.01766 2.42273 8.18418 2.34375 8.36004 2.34375H11.6399C11.8158 2.34375 11.9824 2.42273 12.0936 2.55891C12.9221 3.57277 14.0174 4.3248 15.2611 4.73379C15.5016 4.81285 15.664 5.03734 15.664 5.29043V9.28719C15.664 12.8755 13.5293 16.0843 10.2255 17.462C10.1534 17.492 10.0767 17.5071 10 17.5071Z" fill="#F5F5FF"/>
<path d="M15.2612 4.73379C14.0175 4.3248 12.9221 3.57277 12.0937 2.55891C11.9824 2.42273 11.8158 2.34375 11.6399 2.34375H10V17.5071C10.0767 17.5071 10.1534 17.4921 10.2255 17.462C13.5293 16.0843 15.6641 12.8755 15.6641 9.28719V5.29043C15.6641 5.03734 15.5016 4.81285 15.2612 4.73379Z" fill="#E2E7FA"/>
<path d="M9.08857 12.3734C8.93861 12.3734 8.78864 12.3162 8.67427 12.2017L6.85134 10.3788C6.62251 10.15 6.62251 9.779 6.85134 9.55017C7.08013 9.32134 7.45114 9.32134 7.67997 9.55017L9.0886 10.9588L12.3201 7.72728C12.5489 7.49846 12.9199 7.49846 13.1488 7.72728C13.3776 7.95611 13.3776 8.32709 13.1488 8.55592L9.50294 12.2017C9.38849 12.3162 9.23853 12.3734 9.08857 12.3734Z" fill="#6B61B1"/>
<path d="M12.3201 7.72731L10 10.0473V11.7046L13.1487 8.55594C13.3775 8.32712 13.3775 7.95614 13.1487 7.72731C12.9199 7.49845 12.5489 7.49845 12.3201 7.72731Z" fill="#453D81"/>
</g>
<defs>
<clipPath id="clip0_1464:1709">
<rect width="20" height="20" fill="white"/>
</clipPath>
</defs>
</svg>
