<svg width="50" height="50" viewBox="0 0 50 50" fill="none" xmlns="http://www.w3.org/2000/svg">
<path d="M0 25C0 11.1929 11.1929 0 25 0C38.8071 0 50 11.1929 50 25C50 38.8071 38.8071 50 25 50C11.1929 50 0 38.8071 0 25Z" fill="#FFC107"/>
<path d="M21.875 39.2578C21.875 40.0866 22.2042 40.8815 22.7903 41.4675C23.3763 42.0536 24.1712 42.3828 25 42.3828C25.8288 42.3828 26.6237 42.0536 27.2097 41.4675C27.7958 40.8815 28.125 40.0866 28.125 39.2578C28.125 38.429 27.7958 37.6342 27.2097 37.0481C26.6237 36.4621 25.8288 36.1328 25 36.1328C24.1712 36.1328 23.3763 36.4621 22.7903 37.0481C22.2042 37.6342 21.875 38.429 21.875 39.2578ZM23.4375 31.0547H26.5625C26.7773 31.0547 26.9531 30.8789 26.9531 30.6641V8.00781C26.9531 7.79297 26.7773 7.61719 26.5625 7.61719H23.4375C23.2227 7.61719 23.0469 7.79297 23.0469 8.00781V30.6641C23.0469 30.8789 23.2227 31.0547 23.4375 31.0547Z" fill="white"/>
</svg>
