<svg width="16" height="16" viewBox="0 0 16 16" fill="none" xmlns="http://www.w3.org/2000/svg">
<path d="M7.99984 7.99998C7.2665 7.99998 6.6665 7.39998 6.6665 6.66665C6.6665 5.93331 7.2665 5.33331 7.99984 5.33331C8.73317 5.33331 9.33317 5.93331 9.33317 6.66665C9.33317 7.39998 8.73317 7.99998 7.99984 7.99998ZM11.9998 6.79998C11.9998 4.37998 10.2332 2.66665 7.99984 2.66665C5.7665 2.66665 3.99984 4.37998 3.99984 6.79998C3.99984 8.35998 5.29984 10.4266 7.99984 12.8933C10.6998 10.4266 11.9998 8.35998 11.9998 6.79998ZM7.99984 1.33331C10.7998 1.33331 13.3332 3.47998 13.3332 6.79998C13.3332 9.01331 11.5532 11.6333 7.99984 14.6666C4.4465 11.6333 2.6665 9.01331 2.6665 6.79998C2.6665 3.47998 5.19984 1.33331 7.99984 1.33331Z" fill="#8C8C8C"/>
</svg>
