<svg width="16" height="16" viewBox="0 0 16 16" fill="none" xmlns="http://www.w3.org/2000/svg">
<path d="M11.9998 5.33335H11.3332V4.00002C11.3332 2.16002 9.83984 0.666687 7.99984 0.666687C6.15984 0.666687 4.6665 2.16002 4.6665 4.00002V5.33335H3.99984C3.2665 5.33335 2.6665 5.93335 2.6665 6.66669V13.3334C2.6665 14.0667 3.2665 14.6667 3.99984 14.6667H11.9998C12.7332 14.6667 13.3332 14.0667 13.3332 13.3334V6.66669C13.3332 5.93335 12.7332 5.33335 11.9998 5.33335ZM5.99984 4.00002C5.99984 2.89335 6.89317 2.00002 7.99984 2.00002C9.1065 2.00002 9.99984 2.89335 9.99984 4.00002V5.33335H5.99984V4.00002ZM11.9998 13.3334H3.99984V6.66669H11.9998V13.3334ZM7.99984 11.3334C8.73317 11.3334 9.33317 10.7334 9.33317 10C9.33317 9.26669 8.73317 8.66669 7.99984 8.66669C7.2665 8.66669 6.6665 9.26669 6.6665 10C6.6665 10.7334 7.2665 11.3334 7.99984 11.3334Z" fill="#8C8C8C"/>
</svg>
