<svg width="12" height="14" viewBox="0 0 12 14" fill="none" xmlns="http://www.w3.org/2000/svg">
<path d="M5.99984 7C5.2665 7 4.6665 6.4 4.6665 5.66666C4.6665 4.93333 5.2665 4.33333 5.99984 4.33333C6.73317 4.33333 7.33317 4.93333 7.33317 5.66666C7.33317 6.4 6.73317 7 5.99984 7ZM9.99984 5.79999C9.99984 3.37999 8.23317 1.66666 5.99984 1.66666C3.7665 1.66666 1.99984 3.37999 1.99984 5.79999C1.99984 7.35999 3.29984 9.42666 5.99984 11.8933C8.69984 9.42666 9.99984 7.35999 9.99984 5.79999ZM5.99984 0.333328C8.79984 0.333328 11.3332 2.47999 11.3332 5.79999C11.3332 8.01333 9.55317 10.6333 5.99984 13.6667C2.4465 10.6333 0.666504 8.01333 0.666504 5.79999C0.666504 2.47999 3.19984 0.333328 5.99984 0.333328Z" fill="#0E9549"/>
</svg>
