<svg width="60" height="60" viewBox="0 0 60 60" fill="none" xmlns="http://www.w3.org/2000/svg">
<rect width="60" height="60" rx="30" fill="#0E9549"/>
<rect width="60" height="60" rx="30" fill="white" fill-opacity="0.95"/>
<path d="M38.3334 35.0001H41.6667V38.3334H38.3334V35.0001ZM38.3334 28.3334H41.6667V31.6667H38.3334V28.3334ZM38.3334 21.6667H41.6667V25.0001H38.3334V21.6667ZM32.9 21.6667L35 23.0667V21.6667H32.9Z" fill="#0E9549"/>
<path d="M26.6666 15V17.5167L30 19.7333V18.3333H45V41.6667H38.3333V45H48.3333V15H26.6666Z" fill="#0E9549"/>
<path d="M23.6166 19.5L35 27.0833V45H11.6666V27.4667L23.6166 19.5ZM26.6666 41.6667H31.6666V28.6L23.6166 23.4833L15 28.9667V41.6667H20V31.6667H26.6666V41.6667Z" fill="#0E9549"/>
</svg>
