<svg width="30" height="30" viewBox="0 0 30 30" fill="none" xmlns="http://www.w3.org/2000/svg">
<circle cx="15" cy="15" r="15" fill="#A3C7E8"/>
<g clip-path="url(#clip0_353:626)">
<path d="M15.2895 18.272C14.3246 18.272 13.5352 19.0614 13.5352 20.0264V23.579C13.5352 24.5439 14.3246 25.3334 15.2895 25.3334C16.2545 25.3334 17.0439 24.5439 17.0439 23.579V20.0264C17.0439 19.0614 16.2545 18.272 15.2895 18.272Z" fill="#3B5692"/>
<path d="M21.6491 7.52623H18.2719C17.8771 6.2543 16.693 5.33325 15.2894 5.33325C13.8859 5.33325 12.7017 6.2543 12.307 7.52623H8.97363C8.49117 7.52623 8.09644 7.92097 8.09644 8.40343C8.09644 8.88588 8.49117 9.28062 8.97363 9.28062H12.3508C12.5701 10.0262 13.0526 10.6403 13.7105 11.035C11.342 11.7368 9.58766 13.9297 9.58766 16.5175V21.1227C9.58766 21.9122 10.2456 22.5701 11.035 22.5701H12.2192V20.0701C12.2192 18.3595 13.6228 16.9561 15.3333 16.9561C17.0438 16.9561 18.4473 18.3596 18.4473 20.0701V22.5701H19.6315C20.421 22.5701 21.0789 21.9122 21.0789 21.1227V16.5613C21.0789 13.9736 19.3245 11.7368 16.9561 11.0789C17.6139 10.6841 18.0964 10.0701 18.3157 9.32448H21.6929C22.1753 9.32448 22.5701 8.92974 22.5701 8.44729C22.5263 7.92097 22.1315 7.52623 21.6491 7.52623ZM15.2894 10.2017C14.3245 10.2017 13.535 9.4122 13.535 8.44729C13.535 7.48237 14.3245 6.6929 15.2894 6.6929C16.2543 6.6929 17.0438 7.48237 17.0438 8.44729C17.0877 9.4122 16.2982 10.2017 15.2894 10.2017Z" fill="#3B5692"/>
</g>
<defs>
<clipPath id="clip0_353:626">
<rect width="20" height="20" fill="white" transform="translate(5.33325 5.33325)"/>
</clipPath>
</defs>
</svg>
