<svg width="27" height="35" viewBox="0 0 27 35" fill="none" xmlns="http://www.w3.org/2000/svg">
<path d="M13.5 0C6.51055 0 0.82428 5.68627 0.82428 12.6756C0.82428 21.3496 12.1678 34.0835 12.6507 34.6214C13.1044 35.1266 13.8964 35.1257 14.3492 34.6214C14.8321 34.0835 26.1756 21.3496 26.1756 12.6756C26.1755 5.68627 20.4893 0 13.5 0ZM13.5 19.0531C9.98341 19.0531 7.12257 16.1922 7.12257 12.6756C7.12257 9.15906 9.98348 6.29822 13.5 6.29822C17.0164 6.29822 19.8773 9.15913 19.8773 12.6757C19.8773 16.1922 17.0164 19.0531 13.5 19.0531Z" fill="#0E9549"/>
</svg>
