<svg width="16" height="16" viewBox="0 0 16 16" fill="none" xmlns="http://www.w3.org/2000/svg">
<path d="M8.00016 1.33331C4.32016 1.33331 1.3335 4.31998 1.3335 7.99998C1.3335 11.68 4.32016 14.6666 8.00016 14.6666C11.6802 14.6666 14.6668 11.68 14.6668 7.99998C14.6668 4.31998 11.6802 1.33331 8.00016 1.33331ZM4.7135 12.1866C5.00016 11.5866 6.74683 11 8.00016 11C9.2535 11 11.0068 11.5866 11.2868 12.1866C10.3802 12.9066 9.24016 13.3333 8.00016 13.3333C6.76016 13.3333 5.62016 12.9066 4.7135 12.1866ZM12.2402 11.22C11.2868 10.06 8.9735 9.66665 8.00016 9.66665C7.02683 9.66665 4.7135 10.06 3.76016 11.22C3.08016 10.3266 2.66683 9.21331 2.66683 7.99998C2.66683 5.05998 5.06016 2.66665 8.00016 2.66665C10.9402 2.66665 13.3335 5.05998 13.3335 7.99998C13.3335 9.21331 12.9202 10.3266 12.2402 11.22V11.22ZM8.00016 3.99998C6.70683 3.99998 5.66683 5.03998 5.66683 6.33331C5.66683 7.62665 6.70683 8.66665 8.00016 8.66665C9.2935 8.66665 10.3335 7.62665 10.3335 6.33331C10.3335 5.03998 9.2935 3.99998 8.00016 3.99998ZM8.00016 7.33331C7.44683 7.33331 7.00016 6.88665 7.00016 6.33331C7.00016 5.77998 7.44683 5.33331 8.00016 5.33331C8.5535 5.33331 9.00016 5.77998 9.00016 6.33331C9.00016 6.88665 8.5535 7.33331 8.00016 7.33331Z" fill="#8C8C8C"/>
</svg>
