<svg width="228" height="228" viewBox="0 0 228 228" fill="none" xmlns="http://www.w3.org/2000/svg">
<path d="M228 114C228 176.96 176.96 228 114 228C51.0395 228 0 176.96 0 114C0 51.0395 51.0395 0 114 0C176.96 0 228 51.0395 228 114ZM9.12 114C9.12 171.924 56.0764 218.88 114 218.88C171.924 218.88 218.88 171.924 218.88 114C218.88 56.0764 171.924 9.12 114 9.12C56.0764 9.12 9.12 56.0764 9.12 114Z" fill="#0E9549"/>
<circle cx="70" cy="69" r="14" fill="#0E9549"/>
<circle cx="70" cy="114" r="14" fill="#0E9549"/>
<circle cx="70" cy="159" r="14" fill="#0E9549"/>
<circle cx="115" cy="69" r="14" fill="#0E9549"/>
<circle cx="115" cy="114" r="14" fill="#0E9549"/>
<circle cx="115" cy="159" r="14" fill="#0E9549"/>
<circle cx="160" cy="69" r="14" fill="#0E9549"/>
<circle cx="160" cy="114" r="14" fill="#0E9549"/>
<circle cx="160" cy="159" r="14" fill="#0E9549"/>
</svg>
