<svg width="28" height="28" viewBox="0 0 28 28" fill="none" xmlns="http://www.w3.org/2000/svg">
<path d="M13.9883 2.33325C7.54831 2.33325 2.33331 7.55992 2.33331 13.9999C2.33331 20.4399 7.54831 25.6666 13.9883 25.6666C20.44 25.6666 25.6666 20.4399 25.6666 13.9999C25.6666 7.55992 20.44 2.33325 13.9883 2.33325ZM14 23.3333C8.84331 23.3333 4.66665 19.1566 4.66665 13.9999C4.66665 8.84325 8.84331 4.66659 14 4.66659C19.1566 4.66659 23.3333 8.84325 23.3333 13.9999C23.3333 19.1566 19.1566 23.3333 14 23.3333ZM14.5833 8.16659H12.8333V15.1666L18.9583 18.8416L19.8333 17.4066L14.5833 14.2916V8.16659Z" fill="#D4D4D4"/>
</svg>
