<svg width="26" height="28" viewBox="0 0 26 28" fill="none" xmlns="http://www.w3.org/2000/svg">
<path d="M10.0626 11.7527H8.3951C8.31995 11.7526 8.24651 11.735 8.17981 11.7012C8.1131 11.6674 8.05569 11.6185 8.01263 11.5587L5.66795 8.29138H4.52559L7.52545 12.4732C7.56851 12.5333 7.62592 12.5823 7.69262 12.6162C7.75933 12.6501 7.83364 12.6679 7.90878 12.6679H11.3713C11.4465 12.6678 11.5208 12.6854 11.5875 12.7193C11.6542 12.7533 11.7116 12.8024 11.7547 12.8626L17.5872 20.9842C17.6421 21.061 17.6716 21.1524 17.6716 21.2461C17.6716 21.3398 17.6421 21.4311 17.5872 21.508L13.3749 27.3755C13.3318 27.4356 13.2744 27.4847 13.2077 27.5186C13.141 27.5525 13.0676 27.5702 12.9924 27.5702C12.9173 27.5702 12.843 27.5525 12.7763 27.5186C12.7096 27.4847 12.6522 27.4356 12.6091 27.3755L8.3968 21.5066C8.34192 21.4301 8.31236 21.3387 8.31236 21.2451C8.31236 21.1515 8.34192 21.0601 8.3968 20.9835L10.6351 17.8664C10.6781 17.8064 10.7356 17.7574 10.8023 17.7237C10.869 17.6898 10.9424 17.6722 11.0176 17.6722C11.0927 17.6722 11.167 17.6898 11.2337 17.7237C11.2996 17.7574 11.357 17.8064 11.4 17.8664L12.2351 19.0249C12.2899 19.1017 12.3195 19.1931 12.3195 19.2868C12.3195 19.3805 12.2899 19.4719 12.2351 19.5487L11.2033 20.9883C11.1484 21.065 11.1189 21.1563 11.1189 21.2499C11.1189 21.3434 11.1484 21.4347 11.2033 21.5114L12.9891 23.9965L14.7765 21.5073C14.8314 21.4306 14.8609 21.3393 14.8609 21.2457C14.8609 21.1522 14.8314 21.0609 14.7765 20.9842L10.5599 15.1064C10.5169 15.0463 10.4595 14.9972 10.3928 14.9633C10.3261 14.9294 10.2518 14.9117 10.1766 14.9117H7.90793C7.83279 14.9117 7.75849 14.9294 7.69179 14.9634C7.62509 14.9972 7.56767 15.0463 7.52461 15.1064L4.52221 19.2882L5.66626 19.2848L8.01178 16.0154C8.05484 15.9556 8.11225 15.9067 8.17896 15.873C8.24566 15.8392 8.31995 15.8215 8.3951 15.8214H9.6903C9.76544 15.8214 9.83889 15.8391 9.90559 15.873C9.97229 15.9069 10.0297 15.956 10.0728 16.0161L10.2585 16.2738C10.3134 16.3505 10.343 16.4418 10.343 16.5354C10.343 16.629 10.3134 16.7202 10.2585 16.797L7.00283 21.3325C6.95977 21.3925 6.90234 21.4414 6.83564 21.4752C6.76894 21.5089 6.69464 21.5266 6.6195 21.5265H1.0073C0.922024 21.5263 0.838447 21.5033 0.764991 21.46C0.692379 21.4167 0.63243 21.3547 0.593592 21.2807C0.553908 21.2068 0.536181 21.1237 0.541247 21.0404C0.547157 20.9573 0.575863 20.8771 0.624834 20.8087L5.47376 14.0465C5.52864 13.9699 5.55818 13.8785 5.55818 13.785C5.55818 13.6914 5.52864 13.6002 5.47376 13.5234L0.624834 6.76537C0.575019 6.69704 0.546307 6.61686 0.540396 6.53356C0.53533 6.45026 0.553058 6.36705 0.592741 6.293C0.63158 6.21895 0.691535 6.15691 0.764991 6.11364C0.837602 6.07036 0.922024 6.04753 1.0073 6.04761H6.62372C6.69887 6.04767 6.77316 6.0654 6.83987 6.09928C6.90657 6.13317 6.96398 6.18223 7.00704 6.2423L10.4468 11.0356C10.4958 11.104 10.5253 11.1843 10.5304 11.2677C10.5363 11.351 10.5186 11.4344 10.4789 11.5084C10.4392 11.5825 10.3793 11.6445 10.3058 11.6875C10.2323 11.7307 10.1479 11.7532 10.0626 11.7527Z" fill="#EC1E24"/>
<path d="M15.9264 15.8175H17.5922C17.6674 15.8175 17.7417 15.8353 17.8084 15.8691C17.8751 15.9031 17.9325 15.9521 17.9756 16.0122L20.3202 19.2788H21.4626L18.4627 15.097C18.4197 15.0369 18.3623 14.9878 18.2956 14.9539C18.2289 14.92 18.1546 14.9023 18.0794 14.9023H14.616C14.5409 14.9023 14.4666 14.8847 14.3999 14.8509C14.3332 14.8172 14.2758 14.7683 14.2327 14.7083L8.39254 6.58527C8.33766 6.50862 8.30811 6.41732 8.30811 6.32374C8.30811 6.23016 8.33766 6.13885 8.39254 6.0622L12.6049 0.194639C12.6479 0.134529 12.7053 0.0854543 12.772 0.0515724C12.8387 0.0176905 12.9122 0 12.9882 0C13.0633 0 13.1368 0.0176905 13.2035 0.0515724C13.2702 0.0854543 13.3276 0.134529 13.3715 0.194639L17.583 6.0622C17.6378 6.13889 17.6674 6.23019 17.6674 6.32374C17.6674 6.41729 17.6378 6.50859 17.583 6.58527L15.3455 9.70173C15.3016 9.76169 15.2442 9.81069 15.1783 9.84445C15.1116 9.8783 15.0373 9.89592 14.9622 9.89592C14.887 9.89592 14.8127 9.8783 14.746 9.84445C14.6793 9.81069 14.6219 9.76169 14.5789 9.70173L13.7464 8.54113C13.6915 8.46446 13.6619 8.37313 13.6619 8.27958C13.6619 8.18604 13.6915 8.09474 13.7464 8.01806L14.7739 6.58664C14.8288 6.51 14.8583 6.41869 14.8583 6.32511C14.8583 6.23153 14.8288 6.14023 14.7739 6.06357L12.9873 3.57231L11.2008 6.0622C11.145 6.13885 11.1155 6.23016 11.1155 6.32374C11.1155 6.41732 11.145 6.50862 11.2008 6.58527L15.4308 12.4672C15.4739 12.5271 15.5313 12.5759 15.598 12.6097C15.6647 12.6435 15.739 12.6612 15.8141 12.6613H18.0684C18.1436 12.6613 18.2179 12.6435 18.2837 12.6096C18.3504 12.5758 18.4079 12.5267 18.4509 12.4666L21.4508 8.28477H20.3076L17.9621 11.5534C17.919 11.6133 17.8616 11.6623 17.7949 11.6961C17.7282 11.7298 17.6539 11.7475 17.5787 11.7474H16.2912C16.216 11.7474 16.1417 11.7297 16.075 11.6958C16.0083 11.6619 15.9509 11.6128 15.9078 11.5527L15.7187 11.2895C15.6638 11.2129 15.6343 11.1216 15.6343 11.0279C15.6343 10.9343 15.6638 10.843 15.7187 10.7664L18.9727 6.23839C19.0158 6.17822 19.0732 6.12911 19.1399 6.09521C19.2066 6.06131 19.2809 6.04364 19.356 6.04369H24.9716C25.0577 6.04377 25.1413 6.06673 25.2148 6.11008C25.2874 6.15344 25.3473 6.21554 25.387 6.28961C25.4258 6.36369 25.4444 6.44691 25.4385 6.53022C25.4326 6.61353 25.4039 6.69375 25.3549 6.76215L20.506 13.5202C20.4511 13.5969 20.4216 13.6884 20.4216 13.7821C20.4216 13.8758 20.4511 13.9673 20.506 14.044L25.3676 20.8041C25.4174 20.8727 25.4478 20.9536 25.4537 21.0378C25.4596 21.1219 25.4419 21.2061 25.4014 21.2808C25.3617 21.3556 25.3009 21.4181 25.2266 21.4614C25.1523 21.5046 25.0679 21.527 24.9809 21.526H19.367C19.2919 21.5261 19.2176 21.5083 19.1509 21.4745C19.0842 21.4406 19.0267 21.3915 18.9828 21.3313L15.5397 16.5387C15.489 16.4701 15.4595 16.3892 15.4536 16.3051C15.4477 16.221 15.4654 16.1369 15.5059 16.0621C15.5456 15.9874 15.6064 15.9249 15.6807 15.8817C15.755 15.8386 15.8394 15.8163 15.9264 15.8175Z" fill="#EC1E24"/>
</svg>
