<svg width="50" height="50" viewBox="0 0 50 50" fill="none" xmlns="http://www.w3.org/2000/svg">
<rect width="50" height="50" fill="white"/>
<path d="M14.538 5.4361C14.1837 5.45426 13.879 5.63456 13.879 6.00482V18.0593C13.879 18.0593 13.922 20.0069 15.6466 21.9546C17.371 23.9022 24.3444 31.95 24.3444 31.95V16.1796L15.4954 5.84072C15.2961 5.56203 14.8923 5.41796 14.538 5.4361ZM35.4084 5.45634C35.0962 5.46597 34.7339 5.63443 34.4322 5.96928L25.6555 16.185V31.95L34.7993 21.3296C34.7993 21.3296 36.1285 19.6026 36.1285 17.5815V6.18953C36.1285 5.6938 35.8098 5.44396 35.4084 5.45634ZM1.89557 20.1197C1.08901 20.1197 0.747858 21.1348 1.52338 21.9219C1.52338 21.9219 16.1963 39.041 19.1433 42.3965C22.0904 45.752 24.3444 45.6516 24.3444 45.6516V34.1322C24.3444 34.1322 18.7711 27.4832 15.669 23.8792C12.5669 20.2751 7.97589 20.1197 7.97589 20.1197H1.89557ZM42.024 20.1197C42.024 20.1197 37.4331 20.2751 34.3309 23.8792C31.2288 27.4832 25.6555 34.1322 25.6555 34.1322V45.6516C25.6555 45.6516 27.9092 45.752 30.8562 42.3965C33.8032 39.041 48.4765 21.9219 48.4765 21.9219C49.2521 21.1348 48.9109 20.1197 48.1044 20.1197H42.024Z" fill="#E00500"/>
</svg>
