<svg width="30" height="30" viewBox="0 0 30 30" fill="none" xmlns="http://www.w3.org/2000/svg">
<g clip-path="url(#clip0_212_1069)">
<path d="M17.7823 2.88647C16.9306 1.89278 16.164 1.01265 15.5678 0.274483C15.5394 0.217701 15.4826 0.18931 15.4542 0.160918C15.1419 -0.0946016 14.6877 -0.0378194 14.4321 0.274483C13.8359 1.01265 13.0694 1.89278 12.2176 2.88647C8.46999 7.23031 3.27441 13.2492 3.27441 18.2745C3.27441 21.511 4.58041 24.4353 6.70974 26.5647C8.83908 28.6656 11.7634 30 15 30C18.2365 30 21.1608 28.694 23.2902 26.5647C25.4195 24.4353 26.7255 21.511 26.7255 18.2745C26.7255 13.2492 21.5299 7.23031 17.7823 2.88647ZM22.2681 25.5142C20.3943 27.388 17.8391 28.552 15 28.552C12.1608 28.552 9.60564 27.388 7.73182 25.5426C5.8864 23.6972 4.72236 21.1136 4.72236 18.2745C4.72236 13.7887 9.7192 7.99687 13.3249 3.82337C13.9211 3.11359 14.4889 2.4606 15 1.83599C15.511 2.4606 16.0788 3.11359 16.675 3.79498C20.2807 7.96848 25.2776 13.7319 25.2776 18.2461C25.2776 21.0852 24.1135 23.6404 22.2681 25.5142Z" fill="#007FD6"/>
<path d="M15.0569 24.833C13.2967 24.833 11.7068 24.1232 10.5711 22.9876C9.43549 21.8519 8.72571 20.262 8.72571 18.5018C8.72571 18.1043 8.41341 17.792 8.01593 17.792C7.61845 17.792 7.30615 18.1043 7.30615 18.5018C7.30615 20.6595 8.18628 22.5901 9.57744 24.0096C10.9402 25.3724 12.8992 26.2525 15.0569 26.2525C15.4544 26.2525 15.7667 25.9402 15.7667 25.5428C15.7667 25.1453 15.4544 24.833 15.0569 24.833Z" fill="#007FD6"/>
</g>
<defs>
<clipPath id="clip0_212_1069">
<rect width="30" height="30" fill="white"/>
</clipPath>
</defs>
</svg>
