<svg width="60" height="60" viewBox="0 0 60 60" fill="none" xmlns="http://www.w3.org/2000/svg">
<g clip-path="url(#clip0_250:6)">
<path d="M32.7823 17.8865C31.9306 16.8928 31.164 16.0127 30.5678 15.2745C30.5394 15.2177 30.4826 15.1893 30.4542 15.1609C30.1419 14.9054 29.6877 14.9622 29.4321 15.2745C28.8359 16.0127 28.0694 16.8928 27.2176 17.8865C23.47 22.2303 18.2744 28.2492 18.2744 33.2745C18.2744 36.511 19.5804 39.4353 21.7097 41.5647C23.8391 43.6656 26.7634 45 30 45C33.2365 45 36.1608 43.694 38.2902 41.5647C40.4195 39.4353 41.7255 36.511 41.7255 33.2745C41.7255 28.2492 36.5299 22.2303 32.7823 17.8865ZM37.2681 40.5142C35.3943 42.388 32.8391 43.552 30 43.552C27.1608 43.552 24.6056 42.388 22.7318 40.5426C20.8864 38.6972 19.7224 36.1136 19.7224 33.2745C19.7224 28.7887 24.7192 22.9969 28.3249 18.8234C28.9211 18.1136 29.4889 17.4606 30 16.836C30.511 17.4606 31.0788 18.1136 31.675 18.795C35.2807 22.9685 40.2776 28.7319 40.2776 33.2461C40.2776 36.0852 39.1135 38.6404 37.2681 40.5142Z" fill="#007FD6"/>
<path d="M30.0569 39.833C28.2967 39.833 26.7068 39.1232 25.5711 37.9876C24.4355 36.8519 23.7257 35.262 23.7257 33.5018C23.7257 33.1043 23.4134 32.792 23.0159 32.792C22.6185 32.792 22.3062 33.1043 22.3062 33.5018C22.3062 35.6595 23.1863 37.5901 24.5774 39.0096C25.9402 40.3724 27.8992 41.2525 30.0569 41.2525C30.4544 41.2525 30.7667 40.9402 30.7667 40.5428C30.7667 40.1453 30.4544 39.833 30.0569 39.833Z" fill="#007FD6"/>
</g>
<defs>
<clipPath id="clip0_250:6">
<rect width="30" height="30" fill="white" transform="translate(15 15)"/>
</clipPath>
</defs>
</svg>
