<svg width="15" height="18" viewBox="0 0 15 18" fill="none" xmlns="http://www.w3.org/2000/svg">
<g clip-path="url(#clip0_288:332)">
<path d="M13.3929 7.57211H12.5893V5.13822C12.5893 2.30544 10.3058 0 7.5 0C4.6942 0 2.41071 2.30544 2.41071 5.13822V7.57211H1.60714C0.719866 7.57211 0 8.2989 0 9.19471V15.6851C0 16.5809 0.719866 17.3077 1.60714 17.3077H13.3929C14.2801 17.3077 15 16.5809 15 15.6851V9.19471C15 8.2989 14.2801 7.57211 13.3929 7.57211ZM9.91071 7.57211H5.08929V5.13822C5.08929 3.7962 6.17076 2.70433 7.5 2.70433C8.82924 2.70433 9.91071 3.7962 9.91071 5.13822V7.57211Z" fill="#828282"/>
</g>
<defs>
<clipPath id="clip0_288:332">
<rect width="15" height="17.3077" fill="white"/>
</clipPath>
</defs>
</svg>
