<svg width="90" height="90" viewBox="0 0 90 90" fill="none" xmlns="http://www.w3.org/2000/svg">
<g clip-path="url(#clip0_244_720)">
<path d="M18.9219 27.9743L44.3476 15.9704H37.1642L26.2944 6.70751C25.8218 6.23496 25.1602 6.0459 24.4984 6.0459H6.63432C5.02742 6.0459 3.79883 7.27468 3.79883 8.88138V27.9743H18.9219Z" fill="#26A05B"/>
<path d="M78.4688 27.9744H86.2194V18.8059C86.2194 17.1991 84.9907 15.9705 83.3839 15.9705H72.7979L78.4688 27.9744Z" fill="#26A05B"/>
<path d="M69.3003 7.369C68.5441 5.76211 66.5593 5.00606 64.858 5.85673L16.8423 28.5413H79.2248L69.3003 7.369Z" fill="#F9DF8A"/>
<path d="M89.2439 28.3524C88.6768 27.7852 87.9207 27.5017 87.1645 27.5017H86.2194H78.4688H18.9217H3.79866H2.85356C2.09733 27.5017 1.34128 27.7852 0.774113 28.3524C0.206944 28.9195 -0.076551 29.6756 0.0178869 30.4318L2.85337 81.8502C2.94781 83.3624 4.17659 84.4968 5.68886 84.4968H84.3288C85.8411 84.4968 87.0699 83.3626 87.1643 81.8502L90 30.4318C90 29.6756 89.7165 28.9194 89.2439 28.3524Z" fill="#4FBE87"/>
</g>
<defs>
<clipPath id="clip0_244_720">
<rect width="90" height="90" fill="white"/>
</clipPath>
</defs>
</svg>
