<svg width="15" height="15" viewBox="0 0 15 15" fill="none" xmlns="http://www.w3.org/2000/svg">
<g clip-path="url(#clip0_194_1166)">
<path d="M12.9915 10.2075H12.0591V2.74845C12.0591 1.63676 11.1626 0.740234 10.0509 0.740234H1.91044C1.87458 0.740234 1.83872 0.740234 1.80286 0.758165C0.69117 0.883679 -0.097773 1.86986 0.00981013 2.98155C0.117393 3.91394 0.852544 4.66702 1.80286 4.7746C1.83872 4.7746 1.87458 4.79253 1.91044 4.79253H2.01803V12.2516V12.2696C2.03596 13.3633 2.93248 14.2598 4.02625 14.2598H12.8481H12.9018H12.9915C14.1032 14.2598 14.9997 13.3633 14.9997 12.2516C15.0177 11.1041 14.1032 10.2075 12.9915 10.2075ZM2.01803 3.69877V3.68084C1.49804 3.68084 1.08564 3.26844 1.08564 2.74845C1.08564 2.22847 1.49804 1.81607 2.01803 1.81607H8.27578C7.97096 2.40777 7.97096 3.10706 8.27578 3.69877H2.01803ZM10.6247 11.0324H3.27316V9.95652H10.6247V11.0324ZM10.6247 8.88069H3.27316V7.80486H10.6247V8.88069ZM10.6247 6.72903H3.27316V5.6532H10.6247V6.72903ZM13.0094 13.1482C12.4894 13.1482 12.077 12.7358 12.077 12.2158V11.2834H13.0094C13.5294 11.2834 13.9418 11.6958 13.9418 12.2158C13.9418 12.7358 13.5294 13.1482 13.0094 13.1482Z" fill="#26A05B"/>
</g>
<defs>
<clipPath id="clip0_194_1166">
<rect width="15" height="15" fill="white"/>
</clipPath>
</defs>
</svg>
