<svg width="15" height="15" viewBox="0 0 15 15" fill="none" xmlns="http://www.w3.org/2000/svg">
<g clip-path="url(#clip0_194_982)">
<path d="M4.55059 1.67383C3.0409 1.67383 1.81268 2.97607 1.81268 4.57674C1.81268 6.1774 3.0409 7.47965 4.55059 7.47965C6.06029 7.47965 7.28853 6.1774 7.28853 4.57674C7.28853 2.97607 6.06032 1.67383 4.55059 1.67383Z" fill="#26A05B"/>
<path d="M10.7753 2.08984C10.7691 2.08984 10.7629 2.08987 10.7567 2.0899C10.1231 2.09515 9.53133 2.36266 9.09035 2.84321C8.65711 3.31527 8.42154 3.93804 8.42696 4.59675C8.43241 5.25546 8.67823 5.87424 9.11918 6.33912C9.56361 6.80761 10.1523 7.06489 10.7789 7.06489C10.7852 7.06489 10.7915 7.06486 10.7978 7.06483C11.4314 7.05959 12.0232 6.79205 12.4641 6.31152C12.8974 5.83946 13.133 5.2167 13.1275 4.55796C13.1163 3.1929 12.0629 2.08984 10.7753 2.08984Z" fill="#26A05B"/>
<path d="M10.8908 7.54004H10.6635C9.60469 7.54004 8.63847 7.94258 7.90898 8.60234C8.0915 8.74238 8.26523 8.89502 8.42988 9.05967C8.91562 9.54541 9.29707 10.1114 9.56367 10.7419C9.8039 11.3097 9.94101 11.9079 9.97295 12.524H15V11.6489C15 9.3834 13.1566 7.54004 10.8908 7.54004Z" fill="#26A05B"/>
<path d="M9.09229 12.5242C9.00938 11.1886 8.33232 10.0138 7.32188 9.26084C6.58682 8.71299 5.6751 8.38867 4.6875 8.38867H4.41387C1.97607 8.3887 0 10.3647 0 12.8025V13.3264H9.10107V12.8025C9.10107 12.7091 9.09814 12.6162 9.09229 12.5242Z" fill="#26A05B"/>
</g>
<defs>
<clipPath id="clip0_194_982">
<rect width="15" height="15" fill="white"/>
</clipPath>
</defs>
</svg>
