<svg width="15" height="15" viewBox="0 0 15 15" fill="none" xmlns="http://www.w3.org/2000/svg">
<path d="M15 10.151C15 8.2896 13.9322 6.62838 12.3328 5.82031C12.2832 9.38927 9.38965 12.2828 5.82069 12.3325C6.62876 13.9318 8.28999 14.9996 10.1514 14.9996C11.0241 14.9996 11.8728 14.7672 12.6185 14.3256L14.9788 14.9784L14.3259 12.6181C14.7676 11.8724 15 11.0237 15 10.151Z" fill="#26A05B"/>
<path d="M11.4551 5.72754C11.4551 2.56931 8.88577 0 5.72754 0C2.56931 0 0 2.56931 0 5.72754C0 6.75682 0.273972 7.75898 0.79422 8.6388L0.0210571 11.4339L2.81628 10.6609C3.6961 11.1811 4.69826 11.4551 5.72754 11.4551C8.88577 11.4551 11.4551 8.88577 11.4551 5.72754ZM4.84863 4.39453H3.96973C3.96973 3.42522 4.75822 2.63672 5.72754 2.63672C6.69685 2.63672 7.48535 3.42522 7.48535 4.39453C7.48535 4.88651 7.27707 5.35938 6.91372 5.69172L6.16699 6.37516V7.06055H5.28809V5.98812L6.32034 5.0433C6.50482 4.8745 6.60645 4.64413 6.60645 4.39453C6.60645 3.90987 6.2122 3.51562 5.72754 3.51562C5.24288 3.51562 4.84863 3.90987 4.84863 4.39453ZM5.28809 7.93945H6.16699V8.81836H5.28809V7.93945Z" fill="#26A05B"/>
</svg>
