<svg width="15" height="15" viewBox="0 0 15 15" fill="none" xmlns="http://www.w3.org/2000/svg">
<g clip-path="url(#clip0_307_20)">
<path d="M7.50076 0C3.35881 0 0.00100708 3.35805 0.00100708 7.49985C0.00100708 11.6417 3.35881 15 7.50076 15C11.6427 15 15.0009 11.6418 15.0009 7.49985C15.0009 3.35785 11.6427 0 7.50076 0ZM11.2691 6.1651L9.43481 7.9994C9.23586 8.19835 8.97136 8.3079 8.69006 8.3079C8.40881 8.3079 8.14426 8.1983 7.94531 7.9995L7.87346 7.92765L7.67816 8.12295L7.74986 8.19465C8.16056 8.60535 8.16056 9.2736 7.74986 9.6843L5.91581 11.5186C5.71686 11.7176 5.45236 11.8271 5.17091 11.8271C4.88951 11.8271 4.62496 11.7175 4.42591 11.5185L3.73266 10.825C3.32196 10.4145 3.32196 9.74635 3.73251 9.3355L5.56696 7.5013C5.76591 7.30235 6.03041 7.1928 6.31186 7.1928C6.59331 7.1928 6.85766 7.3024 7.05676 7.5013L7.12836 7.5729L7.32366 7.3776L7.25206 7.306C6.84136 6.89545 6.84136 6.2272 7.25181 5.8165L9.08626 3.9822C9.28531 3.78315 9.54986 3.67355 9.83116 3.67355C10.1125 3.67355 10.377 3.78315 10.5761 3.98205L11.2695 4.6757C11.6798 5.08615 11.6798 5.7545 11.2691 6.1651Z" fill="#26A05B"/>
<path d="M7.12688 8.6728L6.77223 9.02745L6.22213 8.4775L6.57678 8.12285L6.50518 8.05125C6.45318 7.9994 6.38408 7.9707 6.31068 7.9707C6.23713 7.9707 6.16803 7.99935 6.11603 8.05125L4.28173 9.8853C4.17448 9.99265 4.17448 10.1672 4.28173 10.2744L4.97523 10.9681C5.07938 11.0722 5.26063 11.0721 5.36453 10.9682L7.19858 9.13395C7.30598 9.0266 7.30598 8.8519 7.19858 8.7445L7.12688 8.6728Z" fill="#26A05B"/>
<path d="M10.0246 4.53182C9.97259 4.47982 9.90334 4.45117 9.82979 4.45117C9.75624 4.45117 9.68699 4.47982 9.63499 4.53197L7.80067 6.36617C7.69357 6.47352 7.69357 6.64807 7.80082 6.75547L7.87252 6.82707L8.41653 6.28292L8.96663 6.83302L8.42263 7.37717L8.49433 7.44887C8.59848 7.55272 8.77948 7.55287 8.88363 7.44872L10.7178 5.61467C10.8251 5.50732 10.8251 5.33277 10.7178 5.22537L10.0246 4.53182Z" fill="#26A05B"/>
</g>
<defs>
<clipPath id="clip0_307_20">
<rect width="15" height="15" fill="white"/>
</clipPath>
</defs>
</svg>
