<svg width="15" height="18" viewBox="0 0 15 18" fill="none" xmlns="http://www.w3.org/2000/svg">
<g clip-path="url(#clip0_194_963)">
<path d="M7.5 8.86364C9.86719 8.86364 11.7857 6.8797 11.7857 4.43182C11.7857 1.98393 9.86719 0 7.5 0C5.13281 0 3.21429 1.98393 3.21429 4.43182C3.21429 6.8797 5.13281 8.86364 7.5 8.86364ZM10.5 9.97159H9.94085C9.19754 10.3248 8.37054 10.5256 7.5 10.5256C6.62946 10.5256 5.8058 10.3248 5.05915 9.97159H4.5C2.01562 9.97159 0 12.0559 0 14.625V16.0653C0 16.9829 0.719866 17.7273 1.60714 17.7273H13.3929C14.2801 17.7273 15 16.9829 15 16.0653V14.625C15 12.0559 12.9844 9.97159 10.5 9.97159Z" fill="#26A05B"/>
</g>
<defs>
<clipPath id="clip0_194_963">
<rect width="15" height="17.7273" fill="white"/>
</clipPath>
</defs>
</svg>
